999
dxflib 3.12.2.0
  0
SECTION
  2
HEADER
  9
$ACADVER
  1
AC1015
  9
$HANDSEED
  5
FFFF
  9
$DIMADEC
 70
0
  9
$DIMASZ
 40
2.5
  9
$DIMAUNIT
 70
0
  9
$DIMAZIN
 70
2
  9
$DIMDEC
 70
4
  9
$DIMEXE
 40
1.25
  9
$DIMEXO
 40
0.625
  9
$DIMGAP
 40
0.625
  9
$DIMLUNIT
 70
2
  9
$DIMSCALE
 40
1.0
  9
$DIMTSZ
 40
0.0
  9
$DIMTXT
 40
2.5
  9
$DIMZIN
 70
8
  9
$DWGCODEPAGE
  3
ANSI_1252
  9
$INSUNITS
 70
4
  9
$LTSCALE
 40
1.0
  9
$MEASUREMENT
 70
1
  9
$PDMODE
 70
0
  9
$PDSIZE
 40
0
  0
ENDSEC
  0
SECTION
  2
TABLES
  0
TABLE
  2
VPORT
  5
8
100
AcDbSymbolTable
 70
1
  0
VPORT
  5
30
100
AcDbSymbolTableRecord
100
AcDbViewportTableRecord
  2
*Active
 70
0
 10
0.0
 20
0.0
 11
1.0
 21
1.0
 12
286.3055555555554861
 22
148.5
 13
0.0
 23
0.0
 14
10.0
 24
10.0
 15
10.0
 25
10.0
 16
0.0
 26
0.0
 36
1.0
 17
0.0
 27
0.0
 37
0.0
 40
297.0
 41
1.92798353909465
 42
50.0
 43
0.0
 44
0.0
 50
0.0
 51
0.0
 71
0
 72
100
 73
1
 74
3
 75
1
 76
1
 77
0
 78
0
281
0
 65
1
110
0.0
120
0.0
130
0.0
111
1.0
121
0.0
131
0.0
112
0.0
122
1.0
132
0.0
 79
0
146
0.0
  0
ENDTAB
  0
TABLE
  2
LTYPE
  5
5
100
AcDbSymbolTable
 70
41
  0
LTYPE
  5
16
100
AcDbSymbolTableRecord
100
AcDbLinetypeTableRecord
  2
CONTINUOUS
 70
0
  3
Solid line
 72
65
 73
0
 40
0.0
  0
LTYPE
  5
31
100
AcDbSymbolTableRecord
100
AcDbLinetypeTableRecord
  2
ACAD_ISO15W100
 70
0
  3
ISO double-dash triple-dot __ __ . . . __ __ . .
 72
65
 73
10
 40
39.0000000000000071
 49
12.0
 74
0
 49
-3.0
 74
0
 49
12.0
 74
0
 49
-2.9500000000000002
 74
0
 49
0.1
 74
0
 49
-2.9000000000000004
 74
0
 49
0.1
 74
0
 49
-2.9000000000000004
 74
0
 49
0.1
 74
0
 49
-2.9500000000000002
 74
0
  0
LTYPE
  5
32
100
AcDbSymbolTableRecord
100
AcDbLinetypeTableRecord
  2
DIVIDE
 70
0
  3
Divide ____ . . ____ . . ____ . . ____ . . ____
 72
65
 73
6
 40
31.7500000000000036
 49
12.6999999999999993
 74
0
 49
-6.2999999999999998
 74
0
 49
0.1
 74
0
 49
-6.25
 74
0
 49
0.1
 74
0
 49
-6.2999999999999998
 74
0
  0
LTYPE
  5
33
100
AcDbSymbolTableRecord
100
AcDbLinetypeTableRecord
  2
ACAD_ISO10W100
 70
0
  3
ISO dash dot __ . __ . __ . __ . __ . __ . __ . 
 72
65
 73
4
 40
18.0
 49
12.0
 74
0
 49
-2.9500000000000002
 74
0
 49
0.1
 74
0
 49
-2.9500000000000002
 74
0
  0
LTYPE
  5
34
100
AcDbSymbolTableRecord
100
AcDbLinetypeTableRecord
  2
ACAD_ISO04W100
 70
0
  3
ISO long-dash dot ____ . ____ . ____ . ____ . _
 72
65
 73
4
 40
30.0
 49
24.0
 74
0
 49
-2.9500000000000002
 74
0
 49
0.1
 74
0
 49
-2.9500000000000002
 74
0
  0
LTYPE
  5
35
100
AcDbSymbolTableRecord
100
AcDbLinetypeTableRecord
  2
CENTER2
 70
0
  3
Center (.5x) ___ _ ___ _ ___ _ ___ _ ___ _ ___
 72
65
 73
4
 40
28.5750000000000028
 49
19.0500000000000007
 74
0
 49
-3.1749999999999998
 74
0
 49
3.1749999999999998
 74
0
 49
-3.1749999999999998
 74
0
  0
LTYPE
  5
36
100
AcDbSymbolTableRecord
100
AcDbLinetypeTableRecord
  2
ACAD_ISO11W100
 70
0
  3
ISO double-dash dot __ __ . __ __ . __ __ . __ _
 72
65
 73
6
 40
33.0
 49
12.0
 74
0
 49
-3.0
 74
0
 49
12.0
 74
0
 49
-2.9500000000000002
 74
0
 49
0.1
 74
0
 49
-2.9500000000000002
 74
0
  0
LTYPE
  5
37
100
AcDbSymbolTableRecord
100
AcDbLinetypeTableRecord
  2
HIDDEN2
 70
0
  3
Hidden (.5x) _ _ _ _ _ _ _ _ _ _ _ _ _ _ _ _ _ 
 72
65
 73
2
 40
4.7624999999999993
 49
3.1749999999999998
 74
0
 49
-1.5874999999999999
 74
0
  0
LTYPE
  5
38
100
AcDbSymbolTableRecord
100
AcDbLinetypeTableRecord
  2
BORDERX2
 70
0
  3
Border (2x) ____  ____  .  ____  ____  .  ___
 72
65
 73
6
 40
88.8999999999999773
 49
25.3999999999999986
 74
0
 49
-12.6999999999999993
 74
0
 49
25.3999999999999986
 74
0
 49
-12.6499999999999986
 74
0
 49
0.1
 74
0
 49
-12.6499999999999986
 74
0
  0
LTYPE
  5
39
100
AcDbSymbolTableRecord
100
AcDbLinetypeTableRecord
  2
ACAD_ISO05W100
 70
0
  3
ISO long-dash double-dot ____ .. ____ .. ____ . 
 72
65
 73
6
 40
33.0000000000000071
 49
24.0
 74
0
 49
-2.9500000000000002
 74
0
 49
0.1
 74
0
 49
-2.9000000000000004
 74
0
 49
0.1
 74
0
 49
-2.9500000000000002
 74
0
  0
LTYPE
  5
3A
100
AcDbSymbolTableRecord
100
AcDbLinetypeTableRecord
  2
DASHDOTX2
 70
0
  3
Dash dot (2x) ____  .  ____  .  ____  .  ___
 72
65
 73
4
 40
50.7999999999999972
 49
25.3999999999999986
 74
0
 49
-12.6499999999999986
 74
0
 49
0.1
 74
0
 49
-12.6499999999999986
 74
0
  0
LTYPE
  5
3B
100
AcDbSymbolTableRecord
100
AcDbLinetypeTableRecord
  2
HIDDENX2
 70
0
  3
Hidden (2x) ____ ____ ____ ____ ____ ____ ____ 
 72
65
 73
2
 40
19.0499999999999972
 49
12.6999999999999993
 74
0
 49
-6.3499999999999996
 74
0
  0
LTYPE
  5
3C
100
AcDbSymbolTableRecord
100
AcDbLinetypeTableRecord
  2
CENTERX2
 70
0
  3
Center (2x) ________  __  ________  __  _____
 72
65
 73
4
 40
101.6000000000000085
 49
63.5
 74
0
 49
-12.6999999999999993
 74
0
 49
12.6999999999999993
 74
0
 49
-12.6999999999999993
 74
0
  0
LTYPE
  5
3D
100
AcDbSymbolTableRecord
100
AcDbLinetypeTableRecord
  2
BORDER2
 70
0
  3
Border (.5x) __.__.__.__.__.__.__.__.__.__.__.
 72
65
 73
6
 40
22.2250000000000014
 49
6.3499999999999996
 74
0
 49
-3.1749999999999998
 74
0
 49
6.3499999999999996
 74
0
 49
-3.125
 74
0
 49
0.1
 74
0
 49
-3.125
 74
0
  0
LTYPE
  5
3E
100
AcDbSymbolTableRecord
100
AcDbLinetypeTableRecord
  2
DASHDOT2
 70
0
  3
Dash dot (.5x) _._._._._._._._._._._._._._._.
 72
65
 73
4
 40
12.6999999999999993
 49
6.3499999999999996
 74
0
 49
-3.125
 74
0
 49
0.1
 74
0
 49
-3.125
 74
0
  0
LTYPE
  5
3F
100
AcDbSymbolTableRecord
100
AcDbLinetypeTableRecord
  2
ACAD_ISO12W100
 70
0
  3
ISO dash double-dot __ . . __ . . __ . . __ . . 
 72
65
 73
6
 40
21.0
 49
12.0
 74
0
 49
-2.9500000000000002
 74
0
 49
0.1
 74
0
 49
-2.9000000000000004
 74
0
 49
0.1
 74
0
 49
-2.9500000000000002
 74
0
  0
LTYPE
  5
40
100
AcDbSymbolTableRecord
100
AcDbLinetypeTableRecord
  2
ACAD_ISO07W100
 70
0
  3
ISO dot . . . . . . . . . . . . . . . . . . . . 
 72
65
 73
2
 40
3.0
 49
0.1
 74
0
 49
-2.8999999999999999
 74
0
  0
LTYPE
  5
41
100
AcDbSymbolTableRecord
100
AcDbLinetypeTableRecord
  2
HIDDEN
 70
0
  3
Hidden __ __ __ __ __ __ __ __ __ __ __ __ __ __
 72
65
 73
2
 40
9.5249999999999986
 49
6.3499999999999996
 74
0
 49
-3.1749999999999998
 74
0
  0
LTYPE
  5
42
100
AcDbSymbolTableRecord
100
AcDbLinetypeTableRecord
  2
ACAD_ISO06W100
 70
0
  3
ISO long-dash triple-dot ____ ... ____ ... ____
 72
65
 73
8
 40
36.0000000000000071
 49
24.0
 74
0
 49
-2.9500000000000002
 74
0
 49
0.1
 74
0
 49
-2.9000000000000004
 74
0
 49
0.1
 74
0
 49
-2.9000000000000004
 74
0
 49
0.1
 74
0
 49
-2.9500000000000002
 74
0
  0
LTYPE
  5
43
100
AcDbSymbolTableRecord
100
AcDbLinetypeTableRecord
  2
CENTER
 70
0
  3
Center ____ _ ____ _ ____ _ ____ _ ____ _ ____
 72
65
 73
4
 40
50.8000000000000043
 49
31.75
 74
0
 49
-6.3499999999999996
 74
0
 49
6.3499999999999996
 74
0
 49
-6.3499999999999996
 74
0
  0
LTYPE
  5
44
100
AcDbSymbolTableRecord
100
AcDbLinetypeTableRecord
  2
DOTX2
 70
0
  3
Dot (2x) .  .  .  .  .  .  .  .  .  .  .  .  .
 72
65
 73
2
 40
12.6999999999999993
 49
0.1
 74
0
 49
-12.5999999999999996
 74
0
  0
LTYPE
  5
45
100
AcDbSymbolTableRecord
100
AcDbLinetypeTableRecord
  2
PHANTOM
 70
0
  3
Phantom ______  __  __  ______  __  __  ______ 
 72
65
 73
6
 40
63.5000000000000071
 49
31.75
 74
0
 49
-6.3499999999999996
 74
0
 49
6.3499999999999996
 74
0
 49
-6.3499999999999996
 74
0
 49
6.3499999999999996
 74
0
 49
-6.3499999999999996
 74
0
  0
LTYPE
  5
46
100
AcDbSymbolTableRecord
100
AcDbLinetypeTableRecord
  2
ACAD_ISO08W100
 70
0
  3
ISO long-dash short-dash ____ __ ____ __ ____ _
 72
65
 73
4
 40
36.0
 49
24.0
 74
0
 49
-3.0
 74
0
 49
6.0
 74
0
 49
-3.0
 74
0
  0
LTYPE
  5
47
100
AcDbSymbolTableRecord
100
AcDbLinetypeTableRecord
  2
DASHEDX2
 70
0
  3
Dashed (2x) ____  ____  ____  ____  ____  ___
 72
65
 73
2
 40
38.0999999999999943
 49
25.3999999999999986
 74
0
 49
-12.6999999999999993
 74
0
  0
LTYPE
  5
48
100
AcDbSymbolTableRecord
100
AcDbLinetypeTableRecord
  2
ACAD_ISO02W100
 70
0
  3
ISO dash __ __ __ __ __ __ __ __ __ __ __ __ __
 72
65
 73
2
 40
15.0
 49
12.0
 74
0
 49
-3.0
 74
0
  0
LTYPE
  5
49
100
AcDbSymbolTableRecord
100
AcDbLinetypeTableRecord
  2
PHANTOM2
 70
0
  3
Phantom (.5x) ___ _ _ ___ _ _ ___ _ _ ___ _ _
 72
65
 73
6
 40
31.7500000000000036
 49
15.875
 74
0
 49
-3.1749999999999998
 74
0
 49
3.1749999999999998
 74
0
 49
-3.1749999999999998
 74
0
 49
3.1749999999999998
 74
0
 49
-3.1749999999999998
 74
0
  0
LTYPE
  5
4A
100
AcDbSymbolTableRecord
100
AcDbLinetypeTableRecord
  2
DASHED2
 70
0
  3
Dashed (.5x) _ _ _ _ _ _ _ _ _ _ _ _ _ _ _ _ _
 72
65
 73
2
 40
9.5249999999999986
 49
6.3499999999999996
 74
0
 49
-3.1749999999999998
 74
0
  0
LTYPE
  5
4B
100
AcDbSymbolTableRecord
100
AcDbLinetypeTableRecord
  2
ACAD_ISO09W100
 70
0
  3
ISO long-dash double-short-dash ____ __ __ ____
 72
65
 73
6
 40
45.0
 49
24.0
 74
0
 49
-3.0
 74
0
 49
6.0
 74
0
 49
-3.0
 74
0
 49
6.0
 74
0
 49
-3.0
 74
0
  0
LTYPE
  5
4C
100
AcDbSymbolTableRecord
100
AcDbLinetypeTableRecord
  2
ACAD_ISO13W100
 70
0
  3
ISO double-dash double-dot __ __ . . __ __ . . _
 72
65
 73
8
 40
36.0000000000000071
 49
12.0
 74
0
 49
-3.0
 74
0
 49
12.0
 74
0
 49
-2.9500000000000002
 74
0
 49
0.1
 74
0
 49
-2.9000000000000004
 74
0
 49
0.1
 74
0
 49
-2.9500000000000002
 74
0
  0
LTYPE
  5
4D
100
AcDbSymbolTableRecord
100
AcDbLinetypeTableRecord
  2
DOT2
 70
0
  3
Dot (.5x) .....................................
 72
65
 73
2
 40
3.1749999999999998
 49
0.1
 74
0
 49
-3.0749999999999997
 74
0
  0
LTYPE
  5
4E
100
AcDbSymbolTableRecord
100
AcDbLinetypeTableRecord
  2
DASHED
 70
0
  3
Dashed __ __ __ __ __ __ __ __ __ __ __ __ __ _
 72
65
 73
2
 40
19.0499999999999972
 49
12.6999999999999993
 74
0
 49
-6.3499999999999996
 74
0
  0
LTYPE
  5
4F
100
AcDbSymbolTableRecord
100
AcDbLinetypeTableRecord
  2
ACAD_ISO14W100
 70
0
  3
ISO dash triple-dot __ . . . __ . . . __ . . . _
 72
65
 73
8
 40
24.0000000000000036
 49
12.0
 74
0
 49
-2.9500000000000002
 74
0
 49
0.1
 74
0
 49
-2.9000000000000004
 74
0
 49
0.1
 74
0
 49
-2.9000000000000004
 74
0
 49
0.1
 74
0
 49
-2.9500000000000002
 74
0
  0
LTYPE
  5
15
100
AcDbSymbolTableRecord
100
AcDbLinetypeTableRecord
  2
BYLAYER
 70
0
  3

 72
65
 73
0
 40
0.0
  0
LTYPE
  5
50
100
AcDbSymbolTableRecord
100
AcDbLinetypeTableRecord
  2
PHANTOMX2
 70
0
  3
Phantom (2x) ____________    ____    ____   _
 72
65
 73
6
 40
127.0000000000000142
 49
63.5
 74
0
 49
-12.6999999999999993
 74
0
 49
12.6999999999999993
 74
0
 49
-12.6999999999999993
 74
0
 49
12.6999999999999993
 74
0
 49
-12.6999999999999993
 74
0
  0
LTYPE
  5
14
100
AcDbSymbolTableRecord
100
AcDbLinetypeTableRecord
  2
BYBLOCK
 70
0
  3

 72
65
 73
0
 40
0.0
  0
LTYPE
  5
51
100
AcDbSymbolTableRecord
100
AcDbLinetypeTableRecord
  2
DIVIDEX2
 70
0
  3
Divide (2x) ________  .  .  ________  .  .  _
 72
65
 73
6
 40
63.5
 49
25.3999999999999986
 74
0
 49
-12.6499999999999986
 74
0
 49
0.1
 74
0
 49
-12.5999999999999979
 74
0
 49
0.1
 74
0
 49
-12.6499999999999986
 74
0
  0
LTYPE
  5
52
100
AcDbSymbolTableRecord
100
AcDbLinetypeTableRecord
  2
BORDER
 70
0
  3
Border __ __ . __ __ . __ __ . __ __ . __ __ .
 72
65
 73
6
 40
44.4499999999999957
 49
12.6999999999999993
 74
0
 49
-6.3499999999999996
 74
0
 49
12.6999999999999993
 74
0
 49
-6.2999999999999998
 74
0
 49
0.1
 74
0
 49
-6.2999999999999998
 74
0
  0
LTYPE
  5
53
100
AcDbSymbolTableRecord
100
AcDbLinetypeTableRecord
  2
DIVIDE2
 70
0
  3
Divide (.5x) __..__..__..__..__..__..__..__.._
 72
65
 73
6
 40
15.8749999999999982
 49
6.3499999999999996
 74
0
 49
-3.125
 74
0
 49
0.1
 74
0
 49
-3.0750000000000002
 74
0
 49
0.1
 74
0
 49
-3.125
 74
0
  0
LTYPE
  5
54
100
AcDbSymbolTableRecord
100
AcDbLinetypeTableRecord
  2
DOT
 70
0
  3
Dot . . . . . . . . . . . . . . . . . . . . . .
 72
65
 73
2
 40
6.3499999999999996
 49
0.1
 74
0
 49
-6.25
 74
0
  0
LTYPE
  5
55
100
AcDbSymbolTableRecord
100
AcDbLinetypeTableRecord
  2
DASHDOT
 70
0
  3
Dash dot __ . __ . __ . __ . __ . __ . __ . __
 72
65
 73
4
 40
25.4000000000000021
 49
12.6999999999999993
 74
0
 49
-6.2999999999999998
 74
0
 49
0.1
 74
0
 49
-6.2999999999999998
 74
0
  0
LTYPE
  5
56
100
AcDbSymbolTableRecord
100
AcDbLinetypeTableRecord
  2
ACAD_ISO03W100
 70
0
  3
ISO dash space __    __    __    __    __    __
 72
65
 73
2
 40
30.0
 49
12.0
 74
0
 49
-18.0
 74
0
  0
ENDTAB
  0
TABLE
  2
LAYER
  5
2
100
AcDbSymbolTable
 70
1
  0
LAYER
  5
10
100
AcDbSymbolTableRecord
100
AcDbLayerTableRecord
  2
0
 70
0
 62
7
420
0
  6
CONTINUOUS
370
25
390
F
  0
ENDTAB
  0
TABLE
  2
STYLE
  5
3
100
AcDbSymbolTable
 70
1
  0
STYLE
  5
57
100
AcDbSymbolTableRecord
100
AcDbTextStyleTableRecord
  2
Standard
 70
0
 40
0.0
 41
1.0
 50
0.0
 71
0
 42
2.5
  3

  4

1001
ACAD
1000
txt
1071
0
  0
ENDTAB
  0
TABLE
  2
VIEW
  5
6
100
AcDbSymbolTable
 70
0
  0
ENDTAB
  0
TABLE
  2
UCS
  5
7
100
AcDbSymbolTable
 70
0
  0
ENDTAB
  0
TABLE
  2
APPID
  5
9
100
AcDbSymbolTable
 70
1
  0
APPID
  5
12
100
AcDbSymbolTableRecord
100
AcDbRegAppTableRecord
  2
ACAD
 70
0
  0
APPID
  5
58
100
AcDbSymbolTableRecord
100
AcDbRegAppTableRecord
  2
QCAD
 70
0
  0
ENDTAB
  0
TABLE
  2
DIMSTYLE
  5
A
100
AcDbSymbolTable
 70
1
100
AcDbDimStyleTable
 71
0
  0
DIMSTYLE
105
27
100
AcDbSymbolTableRecord
100
AcDbDimStyleTableRecord
  2
Standard
 41
2.5
 42
0.625
 43
3.75
 44
1.25
 70
0
 73
0
 74
0
 77
1
 78
8
140
2.5
141
2.5
143
0.03937007874016
147
0.625
171
3
172
1
271
2
272
2
274
3
278
44
283
0
284
8
340
57
  0
ENDTAB
  0
TABLE
  2
BLOCK_RECORD
  5
1
100
AcDbSymbolTable
 70
1
  0
BLOCK_RECORD
  5
1F
100
AcDbSymbolTableRecord
100
AcDbBlockTableRecord
  2
*Model_Space
340
22
  0
BLOCK_RECORD
  5
1B
100
AcDbSymbolTableRecord
100
AcDbBlockTableRecord
  2
*Paper_Space
340
1E
  0
BLOCK_RECORD
  5
23
100
AcDbSymbolTableRecord
100
AcDbBlockTableRecord
  2
*Paper_Space0
340
26
  0
ENDTAB
  0
ENDSEC
  0
SECTION
  2
BLOCKS
  0
BLOCK
  5
20
100
AcDbEntity
  8
0
100
AcDbBlockBegin
  2
*Model_Space
 70
0
 10
0.0
 20
0.0
 30
0.0
  3
*Model_Space
  1

  0
ENDBLK
  5
21
100
AcDbEntity
  8
0
100
AcDbBlockEnd
  0
BLOCK
  5
1C
100
AcDbEntity
 67
1
  8
0
100
AcDbBlockBegin
  2
*Paper_Space
 70
0
 10
0.0
 20
0.0
 30
0.0
  3
*Paper_Space
  1

  0
ENDBLK
  5
1D
100
AcDbEntity
 67
1
  8
0
100
AcDbBlockEnd
  0
BLOCK
  5
24
100
AcDbEntity
  8
0
100
AcDbBlockBegin
  2
*Paper_Space0
 70
0
 10
0.0
 20
0.0
 30
0.0
  3
*Paper_Space0
  1

  0
ENDBLK
  5
25
100
AcDbEntity
  8
0
100
AcDbBlockEnd
  0
ENDSEC
  0
SECTION
  2
ENTITIES
  0
CIRCLE
  5
59
100
AcDbEntity
100
AcDbCircle
  8
0
 62
7
420
16777215
370
-1
 48
1.0
  6
BYLAYER
 10
147.8756848659050434
 20
85.2288166437464696
 30
0.0
 40
3.2000000000000002
  0
CIRCLE
  5
5A
100
AcDbEntity
100
AcDbCircle
  8
0
 62
7
420
16777215
370
-1
 48
1.0
  6
BYLAYER
 10
100.0
 20
100.0
 30
0.0
 40
3.2000000000000002
  0
CIRCLE
  5
5B
100
AcDbEntity
100
AcDbCircle
  8
0
 62
7
420
16777215
370
-1
 48
1.0
  6
BYLAYER
 10
42.3295099363395906
 20
72.3846465439534654
 30
0.0
 40
3.2000000000000002
  0
CIRCLE
  5
5C
100
AcDbEntity
100
AcDbCircle
  8
0
 62
7
420
16777215
370
-1
 48
1.0
  6
BYLAYER
 10
455.7114381842079638
 20
87.6564701023417001
 30
0.0
 40
3.2000000000000002
  0
CIRCLE
  5
5D
100
AcDbEntity
100
AcDbCircle
  8
0
 62
7
420
16777215
370
-1
 48
1.0
  6
BYLAYER
 10
69.8367631480867459
 20
147.6564701023415012
 30
0.0
 40
3.2000000000000002
  0
CIRCLE
  5
5E
100
AcDbEntity
100
AcDbCircle
  8
0
 62
7
420
16777215
370
-1
 48
1.0
  6
BYLAYER
 10
169.8367631480867317
 20
147.6564701023415012
 30
0.0
 40
3.2000000000000002
  0
CIRCLE
  5
5F
100
AcDbEntity
100
AcDbCircle
  8
0
 62
7
420
16777215
370
-1
 48
1.0
  6
BYLAYER
 10
200.0
 20
100.0
 30
0.0
 40
3.2000000000000002
  0
CIRCLE
  5
60
100
AcDbEntity
100
AcDbCircle
  8
0
 62
7
420
16777215
370
-1
 48
1.0
  6
BYLAYER
 10
117.7114381842079069
 20
136.3138297489760191
 30
0.0
 40
3.2000000000000002
  0
CIRCLE
  5
61
100
AcDbEntity
100
AcDbCircle
  8
0
 62
7
420
16777215
370
-1
 48
1.0
  6
BYLAYER
 10
24.6180717521316552
 20
36.0708167949774392
 30
0.0
 40
3.2000000000000002
  0
CIRCLE
  5
62
100
AcDbEntity
100
AcDbCircle
  8
0
 62
7
420
16777215
370
-1
 48
1.0
  6
BYLAYER
 10
438.0
 20
51.3426403533656526
 30
0.0
 40
3.2000000000000002
  0
CIRCLE
  5
63
100
AcDbEntity
100
AcDbCircle
  8
0
 62
7
420
16777215
370
-1
 48
1.0
  6
BYLAYER
 10
268.0
 20
51.3426403533656526
 30
0.0
 40
3.2000000000000002
  0
CIRCLE
  5
64
100
AcDbEntity
100
AcDbCircle
  8
0
 62
7
420
16777215
370
-1
 48
1.0
  6
BYLAYER
 10
52.1253249638788105
 20
111.342640353365482
 30
0.0
 40
3.2000000000000002
  0
CIRCLE
  5
65
100
AcDbEntity
100
AcDbCircle
  8
0
 62
7
420
16777215
370
-1
 48
1.0
  6
BYLAYER
 10
152.1253249638788247
 20
111.342640353365482
 30
0.0
 40
3.2000000000000002
  0
CIRCLE
  5
66
100
AcDbEntity
100
AcDbCircle
  8
0
 62
7
420
16777215
370
-1
 48
1.0
  6
BYLAYER
 10
217.7114381842079069
 20
136.3138297489760191
 30
0.0
 40
3.2000000000000002
  0
LINE
  5
67
100
AcDbEntity
100
AcDbLine
  8
0
 62
7
420
16777215
370
-1
 48
1.0
  6
BYLAYER
 10
17.4277193817384699
 20
39.5777859692905949
 30
0.0
 11
35.1391575659462632
 21
75.8916157182661095
 31
0.0
  0
LINE
  5
68
100
AcDbEntity
100
AcDbLine
  8
0
 62
7
420
16777215
370
-1
 48
1.0
  6
BYLAYER
 10
44.9349725934856252
 20
114.8496095276786377
 30
0.0
 11
62.6464107776934185
 21
151.1634392766541453
 31
0.0
  0
LINE
  5
69
100
AcDbEntity
100
AcDbLine
  8
0
 62
7
420
16777215
370
-1
 48
1.0
  6
BYLAYER
 10
144.934972593485611
 20
114.8496095276786377
 30
0.0
 11
162.6464107776934043
 21
151.1634392766541453
 31
0.0
  0
LINE
  5
6A
100
AcDbEntity
100
AcDbLine
  8
0
 62
7
420
16777215
370
-1
 48
1.0
  6
BYLAYER
 10
224.9017905546011207
 20
132.8068605746628634
 30
0.0
 11
207.1903523703933274
 21
96.4930308256873275
 31
0.0
  0
LINE
  5
6B
100
AcDbEntity
100
AcDbLine
  8
0
 62
7
420
16777215
370
-1
 48
1.0
  6
BYLAYER
 10
124.9017905546011207
 20
132.8068605746628634
 30
0.0
 11
107.1903523703933274
 21
96.4930308256873275
 31
0.0
  0
ARC
  5
6C
100
AcDbEntity
  8
0
 62
7
420
16777215
370
-1
 48
1.0
  6
BYLAYER
100
AcDbCircle
 10
120.368431654157888
 20
9.9569930853584268
 30
0.0
 40
8.0
100
AcDbArc
 50
254.7448316211722101
 51
51.3417514586333965
  0
ARC
  5
6D
100
AcDbEntity
  8
0
 62
7
420
16777215
370
-1
 48
1.0
  6
BYLAYER
100
AcDbCircle
 10
147.8756848659050434
 20
85.2288166437464696
 30
0.0
 40
8.0
100
AcDbArc
 50
254.7448316211722101
 51
51.3417514586333965
  0
ARC
  5
6E
100
AcDbEntity
  8
0
 62
7
420
16777215
370
-1
 48
1.0
  6
BYLAYER
100
AcDbCircle
 10
247.8756848659050434
 20
85.2288166437464696
 30
0.0
 40
8.0
100
AcDbArc
 50
254.7448316211722101
 51
51.3417514586333965
  0
ARC
  5
6F
100
AcDbEntity
  8
0
 62
7
420
16777215
370
-1
 48
1.0
  6
BYLAYER
100
AcDbCircle
 10
121.9610782821816883
 20
162.4276534585950458
 30
0.0
 40
8.0
100
AcDbArc
 50
74.7448316211722243
 51
231.3417514586333823
  0
ARC
  5
70
100
AcDbEntity
  8
0
 62
7
420
16777215
370
-1
 48
1.0
  6
BYLAYER
100
AcDbCircle
 10
21.9610782821816883
 20
162.4276534585950458
 30
0.0
 40
8.0
100
AcDbArc
 50
74.7448316211722243
 51
231.3417514586333823
  0
ARC
  5
71
100
AcDbEntity
  8
0
 62
7
420
16777215
370
-1
 48
1.0
  6
BYLAYER
100
AcDbCircle
 10
24.6180717521316552
 20
36.0708167949774392
 30
0.0
 40
8.0
100
AcDbArc
 50
154.0
 51
254.7448316211723807
  0
ARC
  5
72
100
AcDbEntity
  8
0
 62
7
420
16777215
370
-1
 48
1.0
  6
BYLAYER
100
AcDbCircle
 10
52.1253249638788105
 20
111.342640353365482
 30
0.0
 40
8.0
100
AcDbArc
 50
154.0
 51
254.7448316211723807
  0
ARC
  5
73
100
AcDbEntity
  8
0
 62
7
420
16777215
370
-1
 48
1.0
  6
BYLAYER
100
AcDbCircle
 10
152.1253249638788247
 20
111.342640353365482
 30
0.0
 40
8.0
100
AcDbArc
 50
154.0
 51
254.7448316211723807
  0
ARC
  5
74
100
AcDbEntity
  8
0
 62
7
420
16777215
370
-1
 48
1.0
  6
BYLAYER
100
AcDbCircle
 10
217.7114381842079069
 20
136.3138297489760191
 30
0.0
 40
8.0
100
AcDbArc
 50
334.0
 51
74.7448316211723807
  0
ARC
  5
75
100
AcDbEntity
  8
0
 62
7
420
16777215
370
-1
 48
1.0
  6
BYLAYER
100
AcDbCircle
 10
117.7114381842079069
 20
136.3138297489760191
 30
0.0
 40
8.0
100
AcDbArc
 50
334.0
 51
74.7448316211723807
  0
LINE
  5
76
100
AcDbEntity
100
AcDbLine
  8
0
 62
7
420
16777215
370
-1
 48
1.0
  6
BYLAYER
 10
144.4086236425188474
 20
98.2470865174300201
 30
0.0
 11
152.8730751892381932
 21
91.475903161176447
 31
0.0
  0
LINE
  5
77
100
AcDbEntity
100
AcDbLine
  8
0
 62
7
420
16777215
370
-1
 48
1.0
  6
BYLAYER
 10
244.4086236425188474
 20
98.2470865174300201
 30
0.0
 11
252.8730751892381932
 21
91.475903161176447
 31
0.0
  0
LINE
  5
78
100
AcDbEntity
100
AcDbLine
  8
0
 62
7
420
16777215
370
-1
 48
1.0
  6
BYLAYER
 10
125.4281395055679127
 20
149.4093835849114953
 30
0.0
 11
116.9636879588485385
 21
156.1805669411649831
 31
0.0
  0
LINE
  5
79
100
AcDbEntity
100
AcDbLine
  8
0
 62
7
420
16777215
370
-1
 48
1.0
  6
BYLAYER
 10
25.4281395055679127
 20
149.4093835849114953
 30
0.0
 11
16.9636879588485385
 21
156.1805669411649831
 31
0.0
  0
LINE
  5
7A
100
AcDbEntity
100
AcDbLine
  8
0
 62
7
420
16777215
370
-1
 48
1.0
  6
BYLAYER
 10
118.2634857161756088
 20
2.2388843404539003
 30
0.0
 11
113.0155712393822398
 21
3.6701386316165454
 31
0.0
  0
LINE
  5
7B
100
AcDbEntity
100
AcDbLine
  8
0
 62
7
420
16777215
370
-1
 48
1.0
  6
BYLAYER
 10
145.7707389279227641
 20
77.5107078988419431
 30
0.0
 11
140.5228244511293951
 21
78.9419621900045883
 31
0.0
  0
LINE
  5
7C
100
AcDbEntity
100
AcDbLine
  8
0
 62
7
420
16777215
370
-1
 48
1.0
  6
BYLAYER
 10
124.0660242201639676
 20
170.1457622034995723
 30
0.0
 11
129.3139386969573366
 21
168.7145079123369271
 31
0.0
  0
LINE
  5
7D
100
AcDbEntity
100
AcDbLine
  8
0
 62
7
420
16777215
370
-1
 48
1.0
  6
BYLAYER
 10
245.7707389279227641
 20
77.5107078988419431
 30
0.0
 11
240.5228244511293951
 21
78.9419621900045883
 31
0.0
  0
LINE
  5
7E
100
AcDbEntity
100
AcDbLine
  8
0
 62
7
420
16777215
370
-1
 48
1.0
  6
BYLAYER
 10
24.0660242201639676
 20
170.1457622034995723
 30
0.0
 11
29.3139386969573366
 21
168.7145079123369271
 31
0.0
  0
LINE
  5
7F
100
AcDbEntity
100
AcDbLine
  8
0
 62
7
420
16777215
370
-1
 48
1.0
  6
BYLAYER
 10
26.8897753573381237
 20
27.1590722796538486
 30
0.0
 11
22.5131258141495465
 21
28.3527080500735096
 31
0.0
  0
LINE
  5
80
100
AcDbEntity
100
AcDbLine
  8
0
 62
7
420
16777215
370
-1
 48
1.0
  6
BYLAYER
 10
54.3970285690852791
 20
102.4308958380418915
 30
0.0
 11
50.0203790258967018
 21
103.6245316084615524
 31
0.0
  0
LINE
  5
81
100
AcDbEntity
100
AcDbLine
  8
0
 62
7
420
16777215
370
-1
 48
1.0
  6
BYLAYER
 10
215.4397345790014811
 20
145.2255742642996097
 30
0.0
 11
219.8163841221900157
 21
144.031938493880034
 31
0.0
  0
LINE
  5
82
100
AcDbEntity
100
AcDbLine
  8
0
 62
7
420
16777215
370
-1
 48
1.0
  6
BYLAYER
 10
154.3970285690852791
 20
102.4308958380418915
 30
0.0
 11
150.020379025896716
 21
103.6245316084615524
 31
0.0
  0
LINE
  5
83
100
AcDbEntity
100
AcDbLine
  8
0
 62
7
420
16777215
370
-1
 48
1.0
  6
BYLAYER
 10
115.4397345790014811
 20
145.2255742642996097
 30
0.0
 11
119.8163841221900157
 21
144.031938493880034
 31
0.0
  0
ARC
  5
84
100
AcDbEntity
  8
0
 62
7
420
16777215
370
-1
 48
1.0
  6
BYLAYER
100
AcDbCircle
 10
72.4927467882528589
 20
24.7281764416117866
 30
0.0
 40
40.0
100
AcDbArc
 50
186.3239779818752595
 51
323.1656852604693313
  0
ARC
  5
85
100
AcDbEntity
  8
0
 62
7
420
16777215
370
-1
 48
1.0
  6
BYLAYER
100
AcDbCircle
 10
100.0000000000000142
 20
99.9999999999998295
 30
0.0
 40
40.0
100
AcDbArc
 50
186.3239779818752595
 51
323.1656852604693313
  0
ARC
  5
86
100
AcDbEntity
  8
0
 62
7
420
16777215
370
-1
 48
1.0
  6
BYLAYER
100
AcDbCircle
 10
169.8367631480865612
 20
147.6564701023415012
 30
0.0
 40
40.0
100
AcDbArc
 50
6.3239779818752329
 51
143.1656852604693313
  0
ARC
  5
87
100
AcDbEntity
  8
0
 62
7
420
16777215
370
-1
 48
1.0
  6
BYLAYER
100
AcDbCircle
 10
200.0
 20
99.9999999999998295
 30
0.0
 40
40.0
100
AcDbArc
 50
186.3239779818752595
 51
323.1656852604693313
  0
ARC
  5
88
100
AcDbEntity
  8
0
 62
7
420
16777215
370
-1
 48
1.0
  6
BYLAYER
100
AcDbCircle
 10
69.8367631480865612
 20
147.6564701023415012
 30
0.0
 40
40.0
100
AcDbArc
 50
6.3239779818752329
 51
143.1656852604693313
  0
LINE
  5
89
100
AcDbEntity
100
AcDbLine
  8
0
 62
256
370
-1
 48
1.0
  6
BYLAYER
 10
128.7060969133736705
 20
100.0
 30
0.0
 11
139.4112333191856408
 21
100.0
 31
0.0
  0
LINE
  5
8A
100
AcDbEntity
100
AcDbLine
  8
0
 62
256
370
-1
 48
1.0
  6
BYLAYER
 10
228.7060969133736705
 20
100.0
 30
0.0
 11
239.4112333191856408
 21
100.0
 31
0.0
  0
LINE
  5
8B
100
AcDbEntity
100
AcDbLine
  8
0
 62
256
370
-1
 48
1.0
  6
BYLAYER
 10
141.1306662347130327
 20
147.6564701023415012
 30
0.0
 11
130.4255298289011193
 21
147.6564701023415012
 31
0.0
  0
LINE
  5
8C
100
AcDbEntity
100
AcDbLine
  8
0
 62
256
370
-1
 48
1.0
  6
BYLAYER
 10
41.1306662347130327
 20
147.6564701023415012
 30
0.0
 11
30.4255298289011193
 21
147.6564701023415012
 31
0.0
  0
ARC
  5
8D
100
AcDbEntity
  8
0
 62
256
370
-1
 48
1.0
  6
BYLAYER
100
AcDbCircle
 10
100.0000000000000142
 20
100.0
 30
0.0
 40
21.7999999999999972
100
AcDbArc
 50
180.0
 51
344.4275671503857552
  0
ARC
  5
8E
100
AcDbEntity
  8
0
 62
256
370
-1
 48
1.0
  6
BYLAYER
100
AcDbCircle
 10
200.0
 20
100.0
 30
0.0
 40
21.7999999999999972
100
AcDbArc
 50
180.0
 51
344.4275671503857552
  0
ARC
  5
8F
100
AcDbEntity
  8
0
 62
256
370
-1
 48
1.0
  6
BYLAYER
100
AcDbCircle
 10
169.8367631480867317
 20
147.6564701023415012
 30
0.0
 40
21.7999999999999972
100
AcDbArc
 50
0.0
 51
164.4275671503857552
  0
ARC
  5
90
100
AcDbEntity
  8
0
 62
256
370
-1
 48
1.0
  6
BYLAYER
100
AcDbCircle
 10
69.8367631480867317
 20
147.6564701023415012
 30
0.0
 40
21.7999999999999972
100
AcDbArc
 50
0.0
 51
164.4275671503857552
  0
ARC
  5
91
100
AcDbEntity
  8
0
 62
256
370
-1
 48
1.0
  6
BYLAYER
100
AcDbCircle
 10
69.8367631480867459
 20
147.6564701023415012
 30
0.0
 40
8.0
100
AcDbArc
 50
0.4356633688893422
 51
154.0000000000000284
  0
ARC
  5
92
100
AcDbEntity
  8
0
 62
256
370
-1
 48
1.0
  6
BYLAYER
100
AcDbCircle
 10
42.3295099363395906
 20
72.3846465439534654
 30
0.0
 40
8.0
100
AcDbArc
 50
51.341751458633226
 51
154.0000000000000284
  0
ARC
  5
93
100
AcDbEntity
  8
0
 62
256
370
-1
 48
1.0
  6
BYLAYER
100
AcDbCircle
 10
169.8367631480867317
 20
147.6564701023415012
 30
0.0
 40
8.0
100
AcDbArc
 50
0.4356633688893422
 51
154.0000000000000284
  0
ARC
  5
94
100
AcDbEntity
  8
0
 62
256
370
-1
 48
1.0
  6
BYLAYER
100
AcDbCircle
 10
200.0
 20
100.0
 30
0.0
 40
8.0
100
AcDbArc
 50
180.4356633688893226
 51
334.0000000000000568
  0
ARC
  5
95
100
AcDbEntity
  8
0
 62
256
370
-1
 48
1.0
  6
BYLAYER
100
AcDbCircle
 10
100.0
 20
100.0
 30
0.0
 40
8.0
100
AcDbArc
 50
180.4356633688893226
 51
334.0000000000000568
  0
LINE
  5
96
100
AcDbEntity
100
AcDbLine
  8
0
 62
256
370
-1
 48
1.0
  6
BYLAYER
 10
77.8365318805232391
 20
147.71729959791233
 30
0.0
 11
78.200630204110567
 21
99.8342396245694772
 31
0.0
  0
LINE
  5
97
100
AcDbEntity
100
AcDbLine
  8
0
 62
256
370
-1
 48
1.0
  6
BYLAYER
 10
177.8365318805232391
 20
147.71729959791233
 30
0.0
 11
178.2006302041105528
 21
99.8342396245694772
 31
0.0
  0
LINE
  5
98
100
AcDbEntity
100
AcDbLine
  8
0
 62
256
370
-1
 48
1.0
  6
BYLAYER
 10
192.0002312675634357
 20
99.9391705044291569
 30
0.0
 11
191.6361329439761789
 21
147.8222304777721376
 31
0.0
  0
LINE
  5
99
100
AcDbEntity
100
AcDbLine
  8
0
 62
256
370
-1
 48
1.0
  6
BYLAYER
 10
92.0002312675634357
 20
99.9391705044291569
 30
0.0
 11
91.6361329439761789
 21
147.8222304777721376
 31
0.0
  0
ARC
  5
9A
100
AcDbEntity
  8
0
 62
256
370
-1
 48
1.0
  6
BYLAYER
100
AcDbCircle
 10
139.4112333191856408
 20
92.0000000000000142
 30
0.0
 40
8.0
100
AcDbArc
 50
51.341751458633162
 51
90.0
  0
ARC
  5
9B
100
AcDbEntity
  8
0
 62
256
370
-1
 48
1.0
  6
BYLAYER
100
AcDbCircle
 10
239.4112333191856408
 20
92.0000000000000142
 30
0.0
 40
8.0
100
AcDbArc
 50
51.341751458633162
 51
90.0
  0
ARC
  5
9C
100
AcDbEntity
  8
0
 62
256
370
-1
 48
1.0
  6
BYLAYER
100
AcDbCircle
 10
130.4255298289011193
 20
155.6564701023414443
 30
0.0
 40
8.0
100
AcDbArc
 50
231.3417514586331833
 51
270.0
  0
ARC
  5
9D
100
AcDbEntity
  8
0
 62
256
370
-1
 48
1.0
  6
BYLAYER
100
AcDbCircle
 10
30.4255298289011193
 20
155.6564701023414443
 30
0.0
 40
8.0
100
AcDbArc
 50
231.3417514586331833
 51
270.0
  0
ARC
  5
9E
100
AcDbEntity
  8
0
 62
256
370
-1
 48
1.0
  6
BYLAYER
100
AcDbCircle
 10
128.7060969133736705
 20
92.0
 30
0.0
 40
8.0
100
AcDbArc
 50
90.0
 51
164.4275671503858405
  0
ARC
  5
9F
100
AcDbEntity
  8
0
 62
256
370
-1
 48
1.0
  6
BYLAYER
100
AcDbCircle
 10
228.7060969133736705
 20
92.0
 30
0.0
 40
8.0
100
AcDbArc
 50
90.0
 51
164.4275671503858405
  0
ARC
  5
A0
100
AcDbEntity
  8
0
 62
256
370
-1
 48
1.0
  6
BYLAYER
100
AcDbCircle
 10
141.1306662347130327
 20
155.6564701023415296
 30
0.0
 40
8.0
100
AcDbArc
 50
270.0
 51
344.4275671503858689
  0
ARC
  5
A1
100
AcDbEntity
  8
0
 62
256
370
-1
 48
1.0
  6
BYLAYER
100
AcDbCircle
 10
41.1306662347130327
 20
155.6564701023415296
 30
0.0
 40
8.0
100
AcDbArc
 50
270.0
 51
344.4275671503858689
  0
ARC
  5
A2
100
AcDbEntity
  8
0
 62
256
370
-1
 48
1.0
  6
BYLAYER
100
AcDbCircle
 10
24.7848294193558303
 20
19.4409635347493222
 30
0.0
 40
8.0
100
AcDbArc
 50
6.3239779818750934
 51
74.7448316211721391
  0
ARC
  5
A3
100
AcDbEntity
  8
0
 62
256
370
-1
 48
1.0
  6
BYLAYER
100
AcDbCircle
 10
52.2920826311029856
 20
94.712787093137365
 30
0.0
 40
8.0
100
AcDbArc
 50
6.3239779818750934
 51
74.7448316211721391
  0
ARC
  5
A4
100
AcDbEntity
  8
0
 62
256
370
-1
 48
1.0
  6
BYLAYER
100
AcDbCircle
 10
152.2920826311029714
 20
94.712787093137365
 30
0.0
 40
8.0
100
AcDbArc
 50
6.3239779818750934
 51
74.7448316211721391
  0
ARC
  5
A5
100
AcDbEntity
  8
0
 62
256
370
-1
 48
1.0
  6
BYLAYER
100
AcDbCircle
 10
217.5446805169837603
 20
152.9436830092041646
 30
0.0
 40
8.0
100
AcDbArc
 50
186.323977981875089
 51
254.7448316211721533
  0
ARC
  5
A6
100
AcDbEntity
  8
0
 62
256
370
-1
 48
1.0
  6
BYLAYER
100
AcDbCircle
 10
117.5446805169837603
 20
152.9436830092041646
 30
0.0
 40
8.0
100
AcDbArc
 50
186.323977981875089
 51
254.7448316211721533
  0
ARC
  5
A7
100
AcDbEntity
  8
0
 62
256
370
-1
 48
1.0
  6
BYLAYER
100
AcDbCircle
 10
110.9106253013999606
 20
-4.0479701132879953
 30
0.0
 40
8.0
100
AcDbArc
 50
74.7448316211722954
 51
143.1656852604695587
  0
ARC
  5
A8
100
AcDbEntity
  8
0
 62
256
370
-1
 48
1.0
  6
BYLAYER
100
AcDbCircle
 10
138.4178785131471159
 20
71.2238534451000476
 30
0.0
 40
8.0
100
AcDbArc
 50
74.7448316211722954
 51
143.1656852604695587
  0
ARC
  5
A9
100
AcDbEntity
  8
0
 62
256
370
-1
 48
1.0
  6
BYLAYER
100
AcDbCircle
 10
238.4178785131471159
 20
71.2238534451000476
 30
0.0
 40
8.0
100
AcDbArc
 50
74.7448316211722954
 51
143.1656852604695587
  0
ARC
  5
AA
100
AcDbEntity
  8
0
 62
256
370
-1
 48
1.0
  6
BYLAYER
100
AcDbCircle
 10
131.4188846349396158
 20
176.4326166572414536
 30
0.0
 40
8.0
100
AcDbArc
 50
254.744831621172267
 51
323.1656852604695587
  0
ARC
  5
AB
100
AcDbEntity
  8
0
 62
256
370
-1
 48
1.0
  6
BYLAYER
100
AcDbCircle
 10
31.4188846349396158
 20
176.4326166572414536
 30
0.0
 40
8.0
100
AcDbArc
 50
254.744831621172267
 51
323.1656852604695587
  0
CIRCLE
  5
AC
100
AcDbEntity
100
AcDbCircle
  8
0
 62
7
420
16777215
370
-1
 48
1.0
  6
BYLAYER
 10
120.368431654157888
 20
9.9569930853584268
 30
0.0
 40
3.2000000000000002
  0
CIRCLE
  5
AD
100
AcDbEntity
100
AcDbCircle
  8
0
 62
7
420
16777215
370
-1
 48
1.0
  6
BYLAYER
 10
533.7503599020262754
 20
25.2288166437466543
 30
0.0
 40
3.2000000000000002
  0
CIRCLE
  5
AE
100
AcDbEntity
100
AcDbCircle
  8
0
 62
7
420
16777215
370
-1
 48
1.0
  6
BYLAYER
 10
363.7503599020262754
 20
25.2288166437466543
 30
0.0
 40
3.2000000000000002
  0
CIRCLE
  5
AF
100
AcDbEntity
100
AcDbCircle
  8
0
 62
7
420
16777215
370
-1
 48
1.0
  6
BYLAYER
 10
21.9610782821816883
 20
162.4276534585950458
 30
0.0
 40
3.2000000000000002
  0
CIRCLE
  5
B0
100
AcDbEntity
100
AcDbCircle
  8
0
 62
7
420
16777215
370
-1
 48
1.0
  6
BYLAYER
 10
121.9610782821816883
 20
162.4276534585950458
 30
0.0
 40
3.2000000000000002
  0
CIRCLE
  5
B1
100
AcDbEntity
100
AcDbCircle
  8
0
 62
7
420
16777215
370
-1
 48
1.0
  6
BYLAYER
 10
247.8756848659050434
 20
85.2288166437464696
 30
0.0
 40
3.2000000000000002
  0
CIRCLE
  5
B2
100
AcDbEntity
100
AcDbCircle
  8
0
 62
256
370
-1
 48
1.0
  6
BYLAYER
 10
485.8746750361211753
 20
40.0000000000001705
 30
0.0
 40
7.5
  0
CIRCLE
  5
B3
100
AcDbEntity
100
AcDbCircle
  8
0
 62
256
370
-1
 48
1.0
  6
BYLAYER
 10
315.8746750361211753
 20
40.0000000000001705
 30
0.0
 40
7.5
  0
CIRCLE
  5
B4
100
AcDbEntity
100
AcDbCircle
  8
0
 62
256
370
-1
 48
1.0
  6
BYLAYER
 10
72.4927467882528589
 20
24.7281764416119572
 30
0.0
 40
7.5
  0
LINE
  5
B5
100
AcDbEntity
100
AcDbLine
  8
0
 62
256
370
-1
 48
1.0
  6
BYLAYER
 10
47.326900259672783
 20
78.6317330613834713
 30
0.0
 11
125.3658219774910805
 21
16.2040796027884326
 31
0.0
  0
LINE
  5
B6
100
AcDbEntity
100
AcDbLine
  8
0
 62
256
370
-1
 48
1.0
  6
BYLAYER
 10
541.7503599020262754
 20
0.0
 30
0.0
 11
541.7503599020262754
 21
165.0000000000001705
 31
0.0
  0
LINE
  5
B7
100
AcDbEntity
100
AcDbLine
  8
0
 62
256
370
-1
 48
1.0
  6
BYLAYER
 10
371.7503599020262754
 20
0.0
 30
0.0
 11
371.7503599020262754
 21
165.0000000000001705
 31
0.0
  0
LINE
  5
B8
100
AcDbEntity
100
AcDbLine
  8
0
 62
256
370
-1
 48
1.0
  6
BYLAYER
 10
430.0
 20
0.0
 30
0.0
 11
430.0
 21
165.0000000000001705
 31
0.0
  0
LINE
  5
B9
100
AcDbEntity
100
AcDbLine
  8
0
 62
256
370
-1
 48
1.0
  6
BYLAYER
 10
260.0
 20
0.0
 30
0.0
 11
260.0
 21
165.0000000000001705
 31
0.0
  0
LINE
  5
BA
100
AcDbEntity
100
AcDbLine
  8
0
 62
256
370
-1
 48
1.0
  6
BYLAYER
 10
541.7503599020262754
 20
0.0
 30
0.0
 11
430.0
 21
0.0
 31
0.0
  0
LINE
  5
BB
100
AcDbEntity
100
AcDbLine
  8
0
 62
256
370
-1
 48
1.0
  6
BYLAYER
 10
371.7503599020262186
 20
0.0
 30
0.0
 11
260.0
 21
0.0
 31
0.0
  0
CIRCLE
  5
BC
100
AcDbEntity
100
AcDbCircle
  8
0
 62
256
370
-1
 48
1.0
  6
BYLAYER
 10
345.0851799510130604
 20
90.080000000000183
 30
0.0
 40
1.6000000000000227
  0
CIRCLE
  5
BD
100
AcDbEntity
100
AcDbCircle
  8
0
 62
256
370
-1
 48
1.0
  6
BYLAYER
 10
315.8751799510131377
 20
92.6200000000001751
 30
0.0
 40
4.0
  0
CIRCLE
  5
BE
100
AcDbEntity
100
AcDbCircle
  8
0
 62
256
370
-1
 48
1.0
  6
BYLAYER
 10
315.8751799510131377
 20
133.2600000000001614
 30
0.0
 40
4.0
  0
CIRCLE
  5
BF
100
AcDbEntity
100
AcDbCircle
  8
0
 62
256
370
-1
 48
1.0
  6
BYLAYER
 10
286.6651799510131582
 20
153.5800000000001546
 30
0.0
 40
1.6000000000000227
  0
CIRCLE
  5
C0
100
AcDbEntity
100
AcDbCircle
  8
0
 62
256
370
-1
 48
1.0
  6
BYLAYER
 10
345.0851799510130604
 20
153.5800000000001546
 30
0.0
 40
1.6000000000000227
  0
LINE
  5
C1
100
AcDbEntity
100
AcDbLine
  8
0
 62
256
370
-1
 48
1.0
  6
BYLAYER
 10
541.7503599020262754
 20
165.0000000000001705
 30
0.0
 11
430.0
 21
165.0000000000001705
 31
0.0
  0
LINE
  5
C2
100
AcDbEntity
100
AcDbLine
  8
0
 62
256
370
-1
 48
1.0
  6
BYLAYER
 10
371.7503599020262186
 20
165.0000000000001705
 30
0.0
 11
260.0
 21
165.0000000000001705
 31
0.0
  0
CIRCLE
  5
C3
100
AcDbEntity
100
AcDbCircle
  8
0
 62
256
370
-1
 48
1.0
  6
BYLAYER
 10
285.7114381842079638
 20
87.6564701023417001
 30
0.0
 40
10.0
  0
ENDSEC
  0
SECTION
  2
OBJECTS
  0
DICTIONARY
  5
C
100
AcDbDictionary
280
0
281
1
  3
ACAD_GROUP
350
D
  3
ACAD_LAYOUT
350
1A
  3
ACAD_MLINESTYLE
350
17
  3
ACAD_PLOTSETTINGS
350
19
  3
ACAD_PLOTSTYLENAME
350
E
  3
AcDbVariableDictionary
350
C4
  3
QCAD_OBJECTS
350
C5
  0
DICTIONARY
  5
D
100
AcDbDictionary
280
0
281
1
  0
ACDBDICTIONARYWDFLT
  5
E
100
AcDbDictionary
281
1
  3
Normal
350
F
100
AcDbDictionaryWithDefault
340
F
  0
ACDBPLACEHOLDER
  5
F
  0
DICTIONARY
  5
17
100
AcDbDictionary
280
0
281
1
  3
Standard
350
18
  0
MLINESTYLE
  5
18
100
AcDbMlineStyle
  2
STANDARD
 70
0
  3

 62
256
 51
90.0
 52
90.0
 71
2
 49
0.5
 62
256
  6
BYLAYER
 49
-0.5
 62
256
  6
BYLAYER
  0
DICTIONARY
  5
19
100
AcDbDictionary
280
0
281
1
  0
DICTIONARY
  5
1A
100
AcDbDictionary
281
1
  3
Layout1
350
1E
  3
Layout2
350
26
  3
Model
350
22
  0
LAYOUT
  5
1E
100
AcDbPlotSettings
  1

  2
none_device
  4

  6

 40
0.0
 41
0.0
 42
0.0
 43
0.0
 44
0.0
 45
0.0
 46
0.0
 47
0.0
 48
0.0
 49
0.0
140
0.0
141
0.0
142
1.0
143
1.0
 70
688
 72
0
 73
0
 74
5
  7

 75
16
147
1.0
148
0.0
149
0.0
100
AcDbLayout
  1
Layout1
 70
1
 71
1
 10
0.0
 20
0.0
 11
420.0
 21
297.0
 12
0.0
 22
0.0
 32
0.0
 14
100000000000000000000.0
 24
100000000000000000000.0
 34
100000000000000000000.0
 15
-100000000000000000000.0
 25
-100000000000000000000.0
 35
-100000000000000000000.0
146
0.0
 13
0.0
 23
0.0
 33
0.0
 16
1.0
 26
0.0
 36
0.0
 17
0.0
 27
1.0
 37
0.0
 76
0
330
1B
  0
LAYOUT
  5
22
100
AcDbPlotSettings
  1

  2
none_device
  4

  6

 40
0.0
 41
0.0
 42
0.0
 43
0.0
 44
0.0
 45
0.0
 46
0.0
 47
0.0
 48
0.0
 49
0.0
140
0.0
141
0.0
142
1.0
143
1.0
 70
1712
 72
0
 73
0
 74
0
  7

 75
0
147
1.0
148
0.0
149
0.0
100
AcDbLayout
  1
Model
 70
1
 71
0
 10
0.0
 20
0.0
 11
12.0
 21
9.0
 12
0.0
 22
0.0
 32
0.0
 14
0.0
 24
0.0
 34
0.0
 15
0.0
 25
0.0
 35
0.0
146
0.0
 13
0.0
 23
0.0
 33
0.0
 16
1.0
 26
0.0
 36
0.0
 17
0.0
 27
1.0
 37
0.0
 76
0
330
1F
  0
LAYOUT
  5
26
100
AcDbPlotSettings
  1

  2
none_device
  4

  6

 40
0.0
 41
0.0
 42
0.0
 43
0.0
 44
0.0
 45
0.0
 46
0.0
 47
0.0
 48
0.0
 49
0.0
140
0.0
141
0.0
142
1.0
143
1.0
 70
688
 72
0
 73
0
 74
5
  7

 75
16
147
1.0
148
0.0
149
0.0
100
AcDbLayout
  1
Layout2
 70
1
 71
2
 10
0.0
 20
0.0
 11
12.0
 21
9.0
 12
0.0
 22
0.0
 32
0.0
 14
0.0
 24
0.0
 34
0.0
 15
0.0
 25
0.0
 35
0.0
146
0.0
 13
0.0
 23
0.0
 33
0.0
 16
1.0
 26
0.0
 36
0.0
 17
0.0
 27
1.0
 37
0.0
 76
0
330
23
  0
DICTIONARY
  5
C4
100
AcDbDictionary
281
1
  3
DIMASSOC
350
C7
  3
HIDETEXT
350
C6
  0
DICTIONARYVAR
  5
C6
100
DictionaryVariables
280
0
  1
2
  0
DICTIONARYVAR
  5
C7
100
DictionaryVariables
280
0
  1
1
  0
DICTIONARY
  5
C5
100
AcDbDictionary
281
1
  3
ColorSettings/BackgroundColor
350
C8
  3
ColorSettings/ColorMode
350
C9
  3
Grid/DisplayGrid00
350
CA
  3
Grid/DisplayGrid01
350
CB
  3
Grid/DisplayGrid02
350
CC
  3
Grid/DisplayGrid03
350
CD
  3
Grid/GridSpacingX00
350
CE
  3
Grid/GridSpacingX01
350
CF
  3
Grid/GridSpacingX02
350
D0
  3
Grid/GridSpacingX03
350
D1
  3
Grid/GridSpacingY00
350
D2
  3
Grid/GridSpacingY01
350
D3
  3
Grid/GridSpacingY02
350
D4
  3
Grid/GridSpacingY03
350
D5
  3
Grid/IsometricGrid00
350
D6
  3
Grid/IsometricGrid01
350
D7
  3
Grid/IsometricGrid02
350
D8
  3
Grid/IsometricGrid03
350
D9
  3
Grid/IsometricProjection00
350
DA
  3
Grid/IsometricProjection01
350
DB
  3
Grid/IsometricProjection02
350
DC
  3
Grid/IsometricProjection03
350
DD
  3
Grid/MetaGridSpacingX00
350
DE
  3
Grid/MetaGridSpacingX01
350
DF
  3
Grid/MetaGridSpacingX02
350
E0
  3
Grid/MetaGridSpacingX03
350
E1
  3
Grid/MetaGridSpacingY00
350
E2
  3
Grid/MetaGridSpacingY01
350
E3
  3
Grid/MetaGridSpacingY02
350
E4
  3
Grid/MetaGridSpacingY03
350
E5
  3
MultiPageSettings/Columns
350
E6
  3
MultiPageSettings/GlueMarginsBottom
350
E7
  3
MultiPageSettings/GlueMarginsLeft
350
E8
  3
MultiPageSettings/GlueMarginsRight
350
E9
  3
MultiPageSettings/GlueMarginsTop
350
EA
  3
MultiPageSettings/PrintCropMarks
350
EB
  3
MultiPageSettings/Rows
350
EC
  3
PageSettings/OffsetX
350
ED
  3
PageSettings/OffsetY
350
EE
  3
PageSettings/PageOrientation
350
EF
  3
PageSettings/PaperHeight
350
F0
  3
PageSettings/PaperWidth
350
F1
  3
PageSettings/Scale
350
F2
  3
PageSettings/ShowPaperBorders
350
F3
  3
QCADVersion
350
F4
  3
UnitSettings/PaperUnit
350
F5
  0
XRECORD
  5
C8
330
C5
100
AcDbXrecord
280
1
1000
\U+0411\U+0435\U+043b\U+044b\U+0439
  0
XRECORD
  5
C9
330
C5
100
AcDbXrecord
280
1
1000
FullColor
  0
XRECORD
  5
CA
330
C5
100
AcDbXrecord
280
1
290
1
  0
XRECORD
  5
CB
330
C5
100
AcDbXrecord
280
1
290
1
  0
XRECORD
  5
CC
330
C5
100
AcDbXrecord
280
1
290
1
  0
XRECORD
  5
CD
330
C5
100
AcDbXrecord
280
1
290
1
  0
XRECORD
  5
CE
330
C5
100
AcDbXrecord
280
1
1000
auto
  0
XRECORD
  5
CF
330
C5
100
AcDbXrecord
280
1
1000
auto
  0
XRECORD
  5
D0
330
C5
100
AcDbXrecord
280
1
1000
auto
  0
XRECORD
  5
D1
330
C5
100
AcDbXrecord
280
1
1000
auto
  0
XRECORD
  5
D2
330
C5
100
AcDbXrecord
280
1
1000
auto
  0
XRECORD
  5
D3
330
C5
100
AcDbXrecord
280
1
1000
auto
  0
XRECORD
  5
D4
330
C5
100
AcDbXrecord
280
1
1000
auto
  0
XRECORD
  5
D5
330
C5
100
AcDbXrecord
280
1
1000
auto
  0
XRECORD
  5
D6
330
C5
100
AcDbXrecord
280
1
290
0
  0
XRECORD
  5
D7
330
C5
100
AcDbXrecord
280
1
290
0
  0
XRECORD
  5
D8
330
C5
100
AcDbXrecord
280
1
290
0
  0
XRECORD
  5
D9
330
C5
100
AcDbXrecord
280
1
290
0
  0
XRECORD
  5
DA
330
C5
100
AcDbXrecord
280
1
 90
0
  0
XRECORD
  5
DB
330
C5
100
AcDbXrecord
280
1
 90
0
  0
XRECORD
  5
DC
330
C5
100
AcDbXrecord
280
1
 90
0
  0
XRECORD
  5
DD
330
C5
100
AcDbXrecord
280
1
 90
0
  0
XRECORD
  5
DE
330
C5
100
AcDbXrecord
280
1
1000
auto
  0
XRECORD
  5
DF
330
C5
100
AcDbXrecord
280
1
1000
auto
  0
XRECORD
  5
E0
330
C5
100
AcDbXrecord
280
1
1000
auto
  0
XRECORD
  5
E1
330
C5
100
AcDbXrecord
280
1
1000
auto
  0
XRECORD
  5
E2
330
C5
100
AcDbXrecord
280
1
1000
auto
  0
XRECORD
  5
E3
330
C5
100
AcDbXrecord
280
1
1000
auto
  0
XRECORD
  5
E4
330
C5
100
AcDbXrecord
280
1
1000
auto
  0
XRECORD
  5
E5
330
C5
100
AcDbXrecord
280
1
1000
auto
  0
XRECORD
  5
E6
330
C5
100
AcDbXrecord
280
1
 90
1
  0
XRECORD
  5
E7
330
C5
100
AcDbXrecord
280
1
 40
10.0
  0
XRECORD
  5
E8
330
C5
100
AcDbXrecord
280
1
 40
10.0
  0
XRECORD
  5
E9
330
C5
100
AcDbXrecord
280
1
 40
10.0
  0
XRECORD
  5
EA
330
C5
100
AcDbXrecord
280
1
 40
10.0
  0
XRECORD
  5
EB
330
C5
100
AcDbXrecord
280
1
290
0
  0
XRECORD
  5
EC
330
C5
100
AcDbXrecord
280
1
 90
1
  0
XRECORD
  5
ED
330
C5
100
AcDbXrecord
280
1
 40
0.0
  0
XRECORD
  5
EE
330
C5
100
AcDbXrecord
280
1
 40
0.0
  0
XRECORD
  5
EF
330
C5
100
AcDbXrecord
280
1
1000
Portrait
  0
XRECORD
  5
F0
330
C5
100
AcDbXrecord
280
1
 40
297.0
  0
XRECORD
  5
F1
330
C5
100
AcDbXrecord
280
1
 40
210.0
  0
XRECORD
  5
F2
330
C5
100
AcDbXrecord
280
1
1000
1:1
  0
XRECORD
  5
F3
330
C5
100
AcDbXrecord
280
1
290
1
  0
XRECORD
  5
F4
330
C5
100
AcDbXrecord
280
1
1000
3.13.1
  0
XRECORD
  5
F5
330
C5
100
AcDbXrecord
280
1
 90
4
  0
ENDSEC
  0
EOF
