<?xml version="1.0" standalone="no"?>
 <!DOCTYPE svg PUBLIC "-//W3C//DTD SVG 1.1//EN" 
 "http://www.w3.org/Graphics/SVG/1.1/DTD/svg11.dtd"> 
<svg xmlns="http://www.w3.org/2000/svg" version="1.1" 
    width="5.09016cm" height="2.91592cm" viewBox="0 0 20040 11480 ">
<title>SVG Picture created as irrigator-B.Cu.svg date 2016/07/01 14:36:19 </title>
  <desc>Picture generated by PCBNEW </desc>
<g style="fill:#000000; fill-opacity:1;stroke:#000000; stroke-opacity:1;
stroke-linecap:round; stroke-linejoin:round; "
 transform="translate(0 0) scale(1 1)">
</g>
<g style="fill:#000000; fill-opacity:0.0; 
stroke:#000000; stroke-width:-0.000393701; stroke-opacity:1; 
stroke-linecap:round; stroke-linejoin:round;">
</g>
<g style="fill:#000000; fill-opacity:0.0; 
stroke:#000000; stroke-width:59.0551; stroke-opacity:1; 
stroke-linecap:round; stroke-linejoin:round;">
<path d="M511 442
L511 11442
" />
<path d="M20011 442
L511 442
" />
<path d="M20011 11442
L20011 442
" />
<path d="M511 11442
L20011 11442
" />
</g>
<g style="fill:#000000; fill-opacity:1.0; 
stroke:#000000; stroke-width:0; stroke-opacity:1; 
stroke-linecap:round; stroke-linejoin:round;">
<circle cx="5590.15" cy="2942.91" r="393.5" /> 
</g>
<g style="fill:#000000; fill-opacity:1.0; 
stroke:#000000; stroke-width:39.3701; stroke-opacity:1; 
stroke-linecap:round; stroke-linejoin:round;">
</g>
<g style="fill:#000000; fill-opacity:1.0; 
stroke:#000000; stroke-width:0; stroke-opacity:1; 
stroke-linecap:round; stroke-linejoin:round;">
<circle cx="15433.2" cy="2942.91" r="453" /> 
</g>
<g style="fill:#000000; fill-opacity:1.0; 
stroke:#000000; stroke-width:39.3701; stroke-opacity:1; 
stroke-linecap:round; stroke-linejoin:round;">
</g>
<g style="fill:#000000; fill-opacity:1.0; 
stroke:#000000; stroke-width:0; stroke-opacity:1; 
stroke-linecap:round; stroke-linejoin:round;">
<polyline style="fill-rule:evenodd;"
points="6380,8757
6380,8127
7167,8127
7167,8757
6380,8757
" /> 
<polyline style="fill-rule:evenodd;"
points="7954,8757
7954,8127
8742,8127
8742,8757
7954,8757
" /> 
<polyline style="fill-rule:evenodd;"
points="8254,7624
8254,6561
9829,6561
9829,7624
8254,7624
" /> 
<polyline style="fill-rule:evenodd;"
points="5192,7624
5192,6561
6767,6561
6767,7624
5192,7624
" /> 
<polyline style="fill-rule:evenodd;"
points="7804,4674
7804,3611
9379,3611
9379,4674
7804,4674
" /> 
<polyline style="fill-rule:evenodd;"
points="4742,4674
4742,3611
6317,3611
6317,4674
4742,4674
" /> 
<polyline style="fill-rule:evenodd;"
points="6230,3407
6230,2777
7017,2777
7017,3407
6230,3407
" /> 
<polyline style="fill-rule:evenodd;"
points="7804,3407
7804,2777
8592,2777
8592,3407
7804,3407
" /> 
<polyline style="fill-rule:evenodd;"
points="9596,2811
10226,2811
10226,3599
9596,3599
9596,2811
" /> 
<polyline style="fill-rule:evenodd;"
points="9596,4386
10226,4386
10226,5174
9596,5174
9596,4386
" /> 
<polyline style="fill-rule:evenodd;"
points="15096,3611
15726,3611
15726,4399
15096,4399
15096,3611
" /> 
<polyline style="fill-rule:evenodd;"
points="15096,5186
15726,5186
15726,5974
15096,5974
15096,5186
" /> 
<polyline style="fill-rule:evenodd;"
points="10522,5153
10522,4937
11152,4937
11152,5153
10522,5153
" /> 
<polyline style="fill-rule:evenodd;"
points="10522,4838
10522,4622
11152,4622
11152,4838
10522,4838
" /> 
<polyline style="fill-rule:evenodd;"
points="10522,4523
10522,4307
11152,4307
11152,4523
10522,4523
" /> 
<polyline style="fill-rule:evenodd;"
points="10522,4208
10522,3992
11152,3992
11152,4208
10522,4208
" /> 
<polyline style="fill-rule:evenodd;"
points="10522,3893
10522,3677
11152,3677
11152,3893
10522,3893
" /> 
<polyline style="fill-rule:evenodd;"
points="10522,3578
10522,3362
11152,3362
11152,3578
10522,3578
" /> 
<polyline style="fill-rule:evenodd;"
points="10522,3263
10522,3047
11152,3047
11152,3263
10522,3263
" /> 
<polyline style="fill-rule:evenodd;"
points="10522,2948
10522,2732
11152,2732
11152,2948
10522,2948
" /> 
<polyline style="fill-rule:evenodd;"
points="11300,1954
11517,1954
11517,2584
11300,2584
11300,1954
" /> 
<polyline style="fill-rule:evenodd;"
points="11615,1954
11832,1954
11832,2584
11615,2584
11615,1954
" /> 
<polyline style="fill-rule:evenodd;"
points="11930,1954
12146,1954
12146,2584
11930,2584
11930,1954
" /> 
<polyline style="fill-rule:evenodd;"
points="12245,1954
12461,1954
12461,2584
12245,2584
12245,1954
" /> 
<polyline style="fill-rule:evenodd;"
points="12560,1954
12776,1954
12776,2584
12560,2584
12560,1954
" /> 
<polyline style="fill-rule:evenodd;"
points="12875,1954
13091,1954
13091,2584
12875,2584
12875,1954
" /> 
<polyline style="fill-rule:evenodd;"
points="13190,1954
13406,1954
13406,2584
13190,2584
13190,1954
" /> 
<polyline style="fill-rule:evenodd;"
points="13505,1954
13721,1954
13721,2584
13505,2584
13505,1954
" /> 
<polyline style="fill-rule:evenodd;"
points="13869,2948
13869,2732
14499,2732
14499,2948
13869,2948
" /> 
<polyline style="fill-rule:evenodd;"
points="13869,3263
13869,3047
14499,3047
14499,3263
13869,3263
" /> 
<polyline style="fill-rule:evenodd;"
points="13869,3578
13869,3362
14499,3362
14499,3578
13869,3578
" /> 
<polyline style="fill-rule:evenodd;"
points="13869,3893
13869,3677
14499,3677
14499,3893
13869,3893
" /> 
<polyline style="fill-rule:evenodd;"
points="13869,4208
13869,3992
14499,3992
14499,4208
13869,4208
" /> 
<polyline style="fill-rule:evenodd;"
points="13869,4523
13869,4307
14499,4307
14499,4523
13869,4523
" /> 
<polyline style="fill-rule:evenodd;"
points="13869,4838
13869,4622
14499,4622
14499,4838
13869,4838
" /> 
<polyline style="fill-rule:evenodd;"
points="13869,5153
13869,4937
14499,4937
14499,5153
13869,5153
" /> 
<polyline style="fill-rule:evenodd;"
points="13505,5301
13721,5301
13721,5931
13505,5931
13505,5301
" /> 
<polyline style="fill-rule:evenodd;"
points="13190,5301
13406,5301
13406,5931
13190,5931
13190,5301
" /> 
<polyline style="fill-rule:evenodd;"
points="12875,5301
13091,5301
13091,5931
12875,5931
12875,5301
" /> 
<polyline style="fill-rule:evenodd;"
points="12560,5301
12776,5301
12776,5931
12560,5931
12560,5301
" /> 
<polyline style="fill-rule:evenodd;"
points="12245,5301
12461,5301
12461,5931
12245,5931
12245,5301
" /> 
<polyline style="fill-rule:evenodd;"
points="11930,5301
12146,5301
12146,5931
11930,5931
11930,5301
" /> 
<polyline style="fill-rule:evenodd;"
points="11615,5301
11832,5301
11832,5931
11615,5931
11615,5301
" /> 
<polyline style="fill-rule:evenodd;"
points="11300,5301
11517,5301
11517,5931
11300,5931
11300,5301
" /> 
<circle cx="2011.15" cy="5442.91" r="800" /> 
</g>
<g style="fill:#000000; fill-opacity:1.0; 
stroke:#000000; stroke-width:39.3701; stroke-opacity:1; 
stroke-linecap:round; stroke-linejoin:round;">
</g>
<g style="fill:#000000; fill-opacity:1.0; 
stroke:#000000; stroke-width:0; stroke-opacity:1; 
stroke-linecap:round; stroke-linejoin:round;">
<circle cx="2011.15" cy="3442.91" r="800" /> 
</g>
<g style="fill:#000000; fill-opacity:1.0; 
stroke:#000000; stroke-width:39.3701; stroke-opacity:1; 
stroke-linecap:round; stroke-linejoin:round;">
</g>
<g style="fill:#000000; fill-opacity:1.0; 
stroke:#000000; stroke-width:0; stroke-opacity:1; 
stroke-linecap:round; stroke-linejoin:round;">
<polyline style="fill-rule:evenodd;"
points="16471,2932
16471,2252
17151,2252
17151,2932
16471,2932
" /> 
</g>
<g style="fill:#000000; fill-opacity:1.0; 
stroke:#000000; stroke-width:680; stroke-opacity:1; 
stroke-linecap:round; stroke-linejoin:round;">
</g>
<g style="fill:#000000; fill-opacity:0.0; 
stroke:#000000; stroke-width:680; stroke-opacity:1; 
stroke-linecap:round; stroke-linejoin:round;">
<path d="M17811 2592
L17811 2592
" />
<path d="M16811 3592
L16811 3592
" />
<path d="M17811 3592
L17811 3592
" />
<path d="M16811 4592
L16811 4592
" />
<path d="M17811 4592
L17811 4592
" />
</g>
<g style="fill:#000000; fill-opacity:1.0; 
stroke:#000000; stroke-width:0; stroke-opacity:1; 
stroke-linecap:round; stroke-linejoin:round;">
<circle cx="15961.2" cy="7442.91" r="800" /> 
</g>
<g style="fill:#000000; fill-opacity:1.0; 
stroke:#000000; stroke-width:39.3701; stroke-opacity:1; 
stroke-linecap:round; stroke-linejoin:round;">
</g>
<g style="fill:#000000; fill-opacity:1.0; 
stroke:#000000; stroke-width:0; stroke-opacity:1; 
stroke-linecap:round; stroke-linejoin:round;">
<circle cx="17961.2" cy="7442.91" r="800" /> 
</g>
<g style="fill:#000000; fill-opacity:1.0; 
stroke:#000000; stroke-width:39.3701; stroke-opacity:1; 
stroke-linecap:round; stroke-linejoin:round;">
</g>
<g style="fill:#000000; fill-opacity:1.0; 
stroke:#000000; stroke-width:0; stroke-opacity:1; 
stroke-linecap:round; stroke-linejoin:round;">
<circle cx="17961.2" cy="9442.91" r="800" /> 
</g>
<g style="fill:#000000; fill-opacity:1.0; 
stroke:#000000; stroke-width:39.3701; stroke-opacity:1; 
stroke-linecap:round; stroke-linejoin:round;">
</g>
<g style="fill:#000000; fill-opacity:1.0; 
stroke:#000000; stroke-width:0; stroke-opacity:1; 
stroke-linecap:round; stroke-linejoin:round;">
<circle cx="15961.2" cy="9442.91" r="800" /> 
</g>
<g style="fill:#000000; fill-opacity:1.0; 
stroke:#000000; stroke-width:39.3701; stroke-opacity:1; 
stroke-linecap:round; stroke-linejoin:round;">
</g>
<g style="fill:#000000; fill-opacity:1.0; 
stroke:#000000; stroke-width:0; stroke-opacity:1; 
stroke-linecap:round; stroke-linejoin:round;">
<circle cx="2011.15" cy="7442.91" r="800" /> 
</g>
<g style="fill:#000000; fill-opacity:1.0; 
stroke:#000000; stroke-width:39.3701; stroke-opacity:1; 
stroke-linecap:round; stroke-linejoin:round;">
</g>
<g style="fill:#000000; fill-opacity:1.0; 
stroke:#000000; stroke-width:0; stroke-opacity:1; 
stroke-linecap:round; stroke-linejoin:round;">
<circle cx="2011.15" cy="9442.91" r="800" /> 
</g>
<g style="fill:#000000; fill-opacity:1.0; 
stroke:#000000; stroke-width:39.3701; stroke-opacity:1; 
stroke-linecap:round; stroke-linejoin:round;">
</g>
<g style="fill:#000000; fill-opacity:1.0; 
stroke:#000000; stroke-width:0; stroke-opacity:1; 
stroke-linecap:round; stroke-linejoin:round;">
<polyline style="fill-rule:evenodd;"
points="7247,9111
7956,9111
7956,9426
7247,9426
7247,9111
" /> 
<polyline style="fill-rule:evenodd;"
points="7247,9859
7956,9859
7956,10174
7247,10174
7247,9859
" /> 
<polyline style="fill-rule:evenodd;"
points="6065,9485
6774,9485
6774,9800
6065,9800
6065,9485
" /> 
<polyline style="fill-rule:evenodd;"
points="13692,9858
13692,10527
12904,10527
12904,9858
13692,9858
" /> 
<polyline style="fill-rule:evenodd;"
points="12117,9858
12117,10527
11330,10527
11330,9858
12117,9858
" /> 
<polyline style="fill-rule:evenodd;"
points="11030,7427
11030,6758
11817,6758
11817,7427
11030,7427
" /> 
<polyline style="fill-rule:evenodd;"
points="12604,7427
12604,6758
13392,6758
13392,7427
12604,7427
" /> 
<polyline style="fill-rule:evenodd;"
points="14845,9874
14176,9874
14176,9086
14845,9086
14845,9874
" /> 
<polyline style="fill-rule:evenodd;"
points="14845,8299
14176,8299
14176,7511
14845,7511
14845,8299
" /> 
<circle cx="8761.15" cy="5642.91" r="197" /> 
</g>
<g style="fill:#000000; fill-opacity:1.0; 
stroke:#000000; stroke-width:39.3701; stroke-opacity:1; 
stroke-linecap:round; stroke-linejoin:round;">
</g>
<g style="fill:#000000; fill-opacity:1.0; 
stroke:#000000; stroke-width:0; stroke-opacity:1; 
stroke-linecap:round; stroke-linejoin:round;">
<circle cx="8261.15" cy="6142.91" r="197" /> 
</g>
<g style="fill:#000000; fill-opacity:1.0; 
stroke:#000000; stroke-width:39.3701; stroke-opacity:1; 
stroke-linecap:round; stroke-linejoin:round;">
</g>
<g style="fill:#000000; fill-opacity:1.0; 
stroke:#000000; stroke-width:0; stroke-opacity:1; 
stroke-linecap:round; stroke-linejoin:round;">
<circle cx="8261.15" cy="5142.91" r="197" /> 
</g>
<g style="fill:#000000; fill-opacity:1.0; 
stroke:#000000; stroke-width:39.3701; stroke-opacity:1; 
stroke-linecap:round; stroke-linejoin:round;">
</g>
<g style="fill:#000000; fill-opacity:1.0; 
stroke:#000000; stroke-width:240; stroke-opacity:1; 
stroke-linecap:round; stroke-linejoin:round;">
</g>
<g style="fill:#000000; fill-opacity:0.0; 
stroke:#000000; stroke-width:240; stroke-opacity:1; 
stroke-linecap:round; stroke-linejoin:round;">
<path d="M11241 9442
L11581 9442
" />
<path d="M11241 8942
L11581 8942
" />
<path d="M11241 8442
L11581 8442
" />
<path d="M11241 7942
L11581 7942
" />
<path d="M13441 7942
L13781 7942
" />
<path d="M13441 8442
L13781 8442
" />
<path d="M13441 8942
L13781 8942
" />
<path d="M13441 9442
L13781 9442
" />
</g>
<g style="fill:#000000; fill-opacity:0.0; 
stroke:#000000; stroke-width:0; stroke-opacity:1; 
stroke-linecap:round; stroke-linejoin:round;">
</g>
<g style="fill:#000000; fill-opacity:1.0; 
stroke:#000000; stroke-width:0; stroke-opacity:1; 
stroke-linecap:round; stroke-linejoin:round;">
<polyline style="fill-rule:evenodd;"
points="3608,6540
4514,6540
4514,7918
3608,7918
3608,6540
" /> 
<polyline style="fill-rule:evenodd;"
points="3608,8666
4514,8666
4514,10044
3608,10044
3608,8666
" /> 
<polyline style="fill-rule:evenodd;"
points="8230,9777
8230,9108
9017,9108
9017,9777
8230,9777
" /> 
<polyline style="fill-rule:evenodd;"
points="9804,9777
9804,9108
10592,9108
10592,9777
9804,9777
" /> 
<circle cx="9911.15" cy="8492.91" r="118.11" /> 
</g>
<g style="fill:#000000; fill-opacity:1.0; 
stroke:#000000; stroke-width:39.3701; stroke-opacity:1; 
stroke-linecap:round; stroke-linejoin:round;">
</g>
<g style="fill:#000000; fill-opacity:1.0; 
stroke:#000000; stroke-width:0; stroke-opacity:1; 
stroke-linecap:round; stroke-linejoin:round;">
<circle cx="9911.15" cy="1992.91" r="118.11" /> 
</g>
<g style="fill:#000000; fill-opacity:1.0; 
stroke:#000000; stroke-width:39.3701; stroke-opacity:1; 
stroke-linecap:round; stroke-linejoin:round;">
</g>
<g style="fill:#000000; fill-opacity:1.0; 
stroke:#000000; stroke-width:0; stroke-opacity:1; 
stroke-linecap:round; stroke-linejoin:round;">
<circle cx="14211.2" cy="7092.91" r="118.11" /> 
</g>
<g style="fill:#000000; fill-opacity:1.0; 
stroke:#000000; stroke-width:39.3701; stroke-opacity:1; 
stroke-linecap:round; stroke-linejoin:round;">
</g>
<g style="fill:#000000; fill-opacity:1.0; 
stroke:#000000; stroke-width:0; stroke-opacity:1; 
stroke-linecap:round; stroke-linejoin:round;">
<circle cx="14211.2" cy="5692.91" r="118.11" /> 
</g>
<g style="fill:#000000; fill-opacity:1.0; 
stroke:#000000; stroke-width:39.3701; stroke-opacity:1; 
stroke-linecap:round; stroke-linejoin:round;">
</g>
<g style="fill:#000000; fill-opacity:1.0; 
stroke:#000000; stroke-width:98.4252; stroke-opacity:1; 
stroke-linecap:round; stroke-linejoin:round;">
</g>
<g style="fill:#000000; fill-opacity:0.0; 
stroke:#000000; stroke-width:98.4252; stroke-opacity:1; 
stroke-linecap:round; stroke-linejoin:round;">
<path d="M2011 5442
L2274 5442
" />
</g>
<g style="fill:#000000; fill-opacity:0.0; 
stroke:#000000; stroke-width:393.701; stroke-opacity:1; 
stroke-linecap:round; stroke-linejoin:round;">
<path d="M2274 5442
L4061 7229
" />
<path d="M8261 6142
L8061 6142
" />
<path d="M6780 6292
L5980 7092
" />
<path d="M7911 6292
L6780 6292
" />
<path d="M8061 6142
L7911 6292
" />
</g>
<g style="fill:#000000; fill-opacity:0.0; 
stroke:#000000; stroke-width:98.4252; stroke-opacity:1; 
stroke-linecap:round; stroke-linejoin:round;">
<path d="M4061 7229
L5843 7229
" />
<path d="M5843 7229
L5980 7092
" />
</g>
<g style="fill:#000000; fill-opacity:0.0; 
stroke:#000000; stroke-width:393.701; stroke-opacity:1; 
stroke-linecap:round; stroke-linejoin:round;">
<path d="M5980 7092
L5980 7649
" />
<path d="M5980 7649
L6773 8442
" />
<path d="M7602 10016
L7635 10016
" />
<path d="M7635 10016
L7761 10142
" />
<path d="M7761 10142
L9498 10142
" />
<path d="M9498 10142
L10198 9442
" />
<path d="M9042 7092
L10311 7092
" />
<path d="M10198 9105
L10198 9442
" />
<path d="M10311 8992
L10198 9105
" />
<path d="M10311 8642
L10311 8992
" />
<path d="M10311 7092
L10311 8642
" />
</g>
<g style="fill:#000000; fill-opacity:0.0; 
stroke:#000000; stroke-width:98.4252; stroke-opacity:1; 
stroke-linecap:round; stroke-linejoin:round;">
<path d="M12998 7092
L13261 7092
" />
</g>
<g style="fill:#000000; fill-opacity:0.0; 
stroke:#000000; stroke-width:393.701; stroke-opacity:1; 
stroke-linecap:round; stroke-linejoin:round;">
<path d="M13261 7092
L13711 6642
" />
<path d="M15411 6242
L15411 5580
" />
<path d="M15011 6642
L15411 6242
" />
<path d="M13711 6642
L15011 6642
" />
<path d="M2011 9442
L3111 10542
" />
<path d="M7076 10542
L7602 10016
" />
<path d="M3111 10542
L7076 10542
" />
<path d="M8761 5642
L4211 5642
" />
<path d="M4211 5642
L2011 3442
" />
<path d="M15411 5580
L17811 5580
" />
</g>
<g style="fill:#000000; fill-opacity:0.0; 
stroke:#000000; stroke-width:98.4252; stroke-opacity:1; 
stroke-linecap:round; stroke-linejoin:round;">
<path d="M17811 5580
L17811 5592
" />
</g>
<g style="fill:#000000; fill-opacity:0.0; 
stroke:#000000; stroke-width:393.701; stroke-opacity:1; 
stroke-linecap:round; stroke-linejoin:round;">
<path d="M17811 4592
L17811 5592
" />
<path d="M17811 5592
L17811 7292
" />
</g>
<g style="fill:#000000; fill-opacity:0.0; 
stroke:#000000; stroke-width:98.4252; stroke-opacity:1; 
stroke-linecap:round; stroke-linejoin:round;">
<path d="M17811 7292
L17961 7442
" />
<path d="M8761 5642
L8761 5592
" />
</g>
<g style="fill:#000000; fill-opacity:0.0; 
stroke:#000000; stroke-width:393.701; stroke-opacity:1; 
stroke-linecap:round; stroke-linejoin:round;">
<path d="M8761 5592
L9011 5342
" />
<path d="M9011 5342
L9011 4561
" />
</g>
<g style="fill:#000000; fill-opacity:0.0; 
stroke:#000000; stroke-width:98.4252; stroke-opacity:1; 
stroke-linecap:round; stroke-linejoin:round;">
<path d="M9011 4561
L8592 4142
" />
<path d="M10837 4415
L10276 4415
" />
<path d="M10276 4415
L9911 4780
" />
<path d="M8592 4142
L9273 4142
" />
</g>
<g style="fill:#000000; fill-opacity:0.0; 
stroke:#000000; stroke-width:393.701; stroke-opacity:1; 
stroke-linecap:round; stroke-linejoin:round;">
<path d="M9273 4142
L9911 4780
" />
<path d="M9042 7092
L9042 7749
" />
<path d="M9042 7749
L8348 8442
" />
</g>
<g style="fill:#000000; fill-opacity:0.0; 
stroke:#000000; stroke-width:98.4252; stroke-opacity:1; 
stroke-linecap:round; stroke-linejoin:round;">
<path d="M8198 3092
L8198 3749
" />
<path d="M8198 3749
L8592 4142
" />
<path d="M8864 4415
L8592 4142
" />
</g>
<g style="fill:#000000; fill-opacity:0.0; 
stroke:#000000; stroke-width:393.701; stroke-opacity:1; 
stroke-linecap:round; stroke-linejoin:round;">
<path d="M9042 7092
L9042 5923
" />
<path d="M9042 5923
L8761 5642
" />
</g>
<g style="fill:#000000; fill-opacity:0.0; 
stroke:#000000; stroke-width:196.85; stroke-opacity:1; 
stroke-linecap:round; stroke-linejoin:round;">
<path d="M14184 4100
L14753 4100
" />
<path d="M16111 4292
L16311 4092
" />
</g>
<g style="fill:#000000; fill-opacity:0.0; 
stroke:#000000; stroke-width:98.4252; stroke-opacity:1; 
stroke-linecap:round; stroke-linejoin:round;">
<path d="M16311 4092
L17311 4092
" />
</g>
<g style="fill:#000000; fill-opacity:0.0; 
stroke:#000000; stroke-width:196.85; stroke-opacity:1; 
stroke-linecap:round; stroke-linejoin:round;">
<path d="M17311 4092
L17811 4592
" />
<path d="M16111 4642
L16111 4292
" />
<path d="M14761 4642
L16111 4642
" />
<path d="M14761 4107
L14761 4642
" />
</g>
<g style="fill:#000000; fill-opacity:0.0; 
stroke:#000000; stroke-width:98.4252; stroke-opacity:1; 
stroke-linecap:round; stroke-linejoin:round;">
<path d="M14753 4100
L14761 4107
" />
</g>
<g style="fill:#000000; fill-opacity:0.0; 
stroke:#000000; stroke-width:196.85; stroke-opacity:1; 
stroke-linecap:round; stroke-linejoin:round;">
<path d="M10837 3785
L12638 3785
" />
<path d="M12638 3785
L12953 4100
" />
<path d="M10837 4415
L12638 4415
" />
<path d="M12953 4100
L14184 4100
" />
<path d="M12638 4415
L12953 4100
" />
</g>
<g style="fill:#000000; fill-opacity:0.0; 
stroke:#000000; stroke-width:393.701; stroke-opacity:1; 
stroke-linecap:round; stroke-linejoin:round;">
<path d="M13611 7942
L13611 7705
" />
<path d="M13611 7705
L12998 7092
" />
<path d="M10111 1292
L9611 1292
" />
<path d="M10111 1292
L17361 1292
" />
<path d="M17361 1292
L17811 1742
" />
<path d="M17811 2592
L17811 1742
" />
<path d="M9061 1842
L9061 2392
" />
<path d="M9611 1292
L9061 1842
" />
</g>
<g style="fill:#000000; fill-opacity:0.0; 
stroke:#000000; stroke-width:98.4252; stroke-opacity:1; 
stroke-linecap:round; stroke-linejoin:round;">
<path d="M13298 10192
L13311 10192
" />
</g>
<g style="fill:#000000; fill-opacity:0.0; 
stroke:#000000; stroke-width:393.701; stroke-opacity:1; 
stroke-linecap:round; stroke-linejoin:round;">
<path d="M13311 10192
L13861 10742
" />
<path d="M13861 10742
L18911 10742
" />
<path d="M18911 10742
L19311 10342
" />
<path d="M19311 10342
L19311 3342
" />
<path d="M19311 3342
L18561 2592
" />
<path d="M18561 2592
L17811 2592
" />
<path d="M6623 3092
L6623 2780
" />
<path d="M6623 2780
L7011 2392
" />
<path d="M7011 2392
L9061 2392
" />
</g>
<g style="fill:#000000; fill-opacity:0.0; 
stroke:#000000; stroke-width:98.4252; stroke-opacity:1; 
stroke-linecap:round; stroke-linejoin:round;">
<path d="M9911 2742
L9911 3205
" />
</g>
<g style="fill:#000000; fill-opacity:0.0; 
stroke:#000000; stroke-width:393.701; stroke-opacity:1; 
stroke-linecap:round; stroke-linejoin:round;">
<path d="M9061 2392
L9561 2392
" />
<path d="M9561 2392
L9911 2742
" />
<path d="M13611 9442
L14473 9442
" />
</g>
<g style="fill:#000000; fill-opacity:0.0; 
stroke:#000000; stroke-width:98.4252; stroke-opacity:1; 
stroke-linecap:round; stroke-linejoin:round;">
<path d="M14473 9442
L14511 9480
" />
</g>
<g style="fill:#000000; fill-opacity:0.0; 
stroke:#000000; stroke-width:393.701; stroke-opacity:1; 
stroke-linecap:round; stroke-linejoin:round;">
<path d="M8261 5142
L8061 5142
" />
<path d="M6380 4992
L5530 4142
" />
<path d="M7911 4992
L6380 4992
" />
<path d="M8061 5142
L7911 4992
" />
</g>
<g style="fill:#000000; fill-opacity:0.0; 
stroke:#000000; stroke-width:196.85; stroke-opacity:1; 
stroke-linecap:round; stroke-linejoin:round;">
<path d="M10837 3470
L10176 3470
" />
</g>
<g style="fill:#000000; fill-opacity:0.0; 
stroke:#000000; stroke-width:98.4252; stroke-opacity:1; 
stroke-linecap:round; stroke-linejoin:round;">
<path d="M10176 3470
L9911 3205
" />
</g>
<g style="fill:#000000; fill-opacity:0.0; 
stroke:#000000; stroke-width:196.85; stroke-opacity:1; 
stroke-linecap:round; stroke-linejoin:round;">
<path d="M10837 4100
L10368 4100
" />
<path d="M9911 3642
L9911 3205
" />
<path d="M10368 4100
L9911 3642
" />
</g>
<g style="fill:#000000; fill-opacity:0.0; 
stroke:#000000; stroke-width:98.4252; stroke-opacity:1; 
stroke-linecap:round; stroke-linejoin:round;">
<path d="M5530 4142
L5573 4142
" />
</g>
<g style="fill:#000000; fill-opacity:0.0; 
stroke:#000000; stroke-width:393.701; stroke-opacity:1; 
stroke-linecap:round; stroke-linejoin:round;">
<path d="M5573 4142
L6623 3092
" />
<path d="M5590 2942
L6473 2942
" />
</g>
<g style="fill:#000000; fill-opacity:0.0; 
stroke:#000000; stroke-width:98.4252; stroke-opacity:1; 
stroke-linecap:round; stroke-linejoin:round;">
<path d="M6473 2942
L6623 3092
" />
</g>
<g style="fill:#000000; fill-opacity:0.0; 
stroke:#000000; stroke-width:393.701; stroke-opacity:1; 
stroke-linecap:round; stroke-linejoin:round;">
<path d="M13611 9442
L13611 9880
" />
</g>
<g style="fill:#000000; fill-opacity:0.0; 
stroke:#000000; stroke-width:98.4252; stroke-opacity:1; 
stroke-linecap:round; stroke-linejoin:round;">
<path d="M13611 9880
L13298 10192
" />
</g>
<g style="fill:#000000; fill-opacity:0.0; 
stroke:#000000; stroke-width:196.85; stroke-opacity:1; 
stroke-linecap:round; stroke-linejoin:round;">
<path d="M14184 3155
L15220 3155
" />
</g>
<g style="fill:#000000; fill-opacity:0.0; 
stroke:#000000; stroke-width:98.4252; stroke-opacity:1; 
stroke-linecap:round; stroke-linejoin:round;">
<path d="M15220 3155
L15433 2942
" />
</g>
<g style="fill:#000000; fill-opacity:0.0; 
stroke:#000000; stroke-width:196.85; stroke-opacity:1; 
stroke-linecap:round; stroke-linejoin:round;">
<path d="M15411 4005
L15411 2964
" />
</g>
<g style="fill:#000000; fill-opacity:0.0; 
stroke:#000000; stroke-width:98.4252; stroke-opacity:1; 
stroke-linecap:round; stroke-linejoin:round;">
<path d="M15411 2964
L15433 2942
" />
</g>
<g style="fill:#000000; fill-opacity:0.0; 
stroke:#000000; stroke-width:196.85; stroke-opacity:1; 
stroke-linecap:round; stroke-linejoin:round;">
<path d="M9911 8492
L8961 9442
" />
</g>
<g style="fill:#000000; fill-opacity:0.0; 
stroke:#000000; stroke-width:98.4252; stroke-opacity:1; 
stroke-linecap:round; stroke-linejoin:round;">
<path d="M8961 9442
L8623 9442
" />
</g>
<g style="fill:#000000; fill-opacity:0.0; 
stroke:#000000; stroke-width:393.701; stroke-opacity:1; 
stroke-linecap:round; stroke-linejoin:round;">
<path d="M7602 9268
L8449 9268
" />
</g>
<g style="fill:#000000; fill-opacity:0.0; 
stroke:#000000; stroke-width:98.4252; stroke-opacity:1; 
stroke-linecap:round; stroke-linejoin:round;">
<path d="M8449 9268
L8623 9442
" />
</g>
<g style="fill:#000000; fill-opacity:0.0; 
stroke:#000000; stroke-width:196.85; stroke-opacity:1; 
stroke-linecap:round; stroke-linejoin:round;">
<path d="M12353 2269
L12353 1835
" />
<path d="M10211 1692
L9911 1992
" />
<path d="M12211 1692
L10211 1692
" />
<path d="M12353 1835
L12211 1692
" />
<path d="M17811 3592
L17311 3092
" />
<path d="M13298 1855
L13298 2269
" />
<path d="M13461 1692
L13298 1855
" />
<path d="M17111 1692
L13461 1692
" />
<path d="M17311 1892
L17111 1692
" />
</g>
<g style="fill:#000000; fill-opacity:0.0; 
stroke:#000000; stroke-width:98.4252; stroke-opacity:1; 
stroke-linecap:round; stroke-linejoin:round;">
<path d="M17311 3092
L17311 1892
" />
<path d="M13613 2269
L13634 2269
" />
<path d="M13634 2269
L13961 1942
" />
<path d="M13961 1942
L16161 1942
" />
<path d="M16161 1942
L16811 2592
" />
<path d="M16811 3592
L16661 3592
" />
</g>
<g style="fill:#000000; fill-opacity:0.0; 
stroke:#000000; stroke-width:196.85; stroke-opacity:1; 
stroke-linecap:round; stroke-linejoin:round;">
<path d="M16661 3592
L16211 3142
" />
<path d="M16211 3142
L16211 2542
" />
<path d="M16211 2542
L15861 2192
" />
<path d="M15861 2192
L14832 2192
" />
<path d="M14832 2192
L14184 2840
" />
<path d="M14184 5045
L14184 5666
" />
<path d="M14511 7392
L14511 7905
" />
<path d="M14211 7092
L14511 7392
" />
</g>
<g style="fill:#000000; fill-opacity:0.0; 
stroke:#000000; stroke-width:98.4252; stroke-opacity:1; 
stroke-linecap:round; stroke-linejoin:round;">
<path d="M14184 5666
L14211 5692
" />
</g>
<g style="fill:#000000; fill-opacity:0.0; 
stroke:#000000; stroke-width:196.85; stroke-opacity:1; 
stroke-linecap:round; stroke-linejoin:round;">
<path d="M15961 7442
L14973 7442
" />
<path d="M14973 7442
L14511 7905
" />
<path d="M14061 6192
L14761 6192
" />
<path d="M14061 6192
L12411 6192
" />
<path d="M12411 6192
L12353 6135
" />
<path d="M12353 5616
L12353 6135
" />
<path d="M16411 4942
L16761 4592
" />
<path d="M16111 4942
L16411 4942
" />
<path d="M14761 4942
L16111 4942
" />
</g>
<g style="fill:#000000; fill-opacity:0.0; 
stroke:#000000; stroke-width:98.4252; stroke-opacity:1; 
stroke-linecap:round; stroke-linejoin:round;">
<path d="M14761 4992
L14761 4942
" />
</g>
<g style="fill:#000000; fill-opacity:0.0; 
stroke:#000000; stroke-width:196.85; stroke-opacity:1; 
stroke-linecap:round; stroke-linejoin:round;">
<path d="M14761 6192
L14761 4992
" />
</g>
<g style="fill:#000000; fill-opacity:0.0; 
stroke:#000000; stroke-width:98.4252; stroke-opacity:1; 
stroke-linecap:round; stroke-linejoin:round;">
<path d="M16761 4592
L16811 4592
" />
</g>
<g style="fill:#000000; fill-opacity:0.0; 
stroke:#000000; stroke-width:196.85; stroke-opacity:1; 
stroke-linecap:round; stroke-linejoin:round;">
<path d="M12038 5616
L12038 6366
" />
<path d="M12038 6366
L12038 9442
" />
<path d="M11411 9442
L12038 9442
" />
</g>
<g style="fill:#000000; fill-opacity:0.0; 
stroke:#000000; stroke-width:98.4252; stroke-opacity:1; 
stroke-linecap:round; stroke-linejoin:round;">
<path d="M12038 9442
L12061 9442
" />
<path d="M12061 9442
L12038 9442
" />
</g>
<g style="fill:#000000; fill-opacity:0.0; 
stroke:#000000; stroke-width:196.85; stroke-opacity:1; 
stroke-linecap:round; stroke-linejoin:round;">
<path d="M12038 9442
L12038 9877
" />
</g>
<g style="fill:#000000; fill-opacity:0.0; 
stroke:#000000; stroke-width:98.4252; stroke-opacity:1; 
stroke-linecap:round; stroke-linejoin:round;">
<path d="M12038 9877
L11723 10192
" />
<path d="M11723 5616
L11723 6792
" />
<path d="M11723 6792
L11411 7105
" />
</g>
<g style="fill:#000000; fill-opacity:0.0; 
stroke:#000000; stroke-width:196.85; stroke-opacity:1; 
stroke-linecap:round; stroke-linejoin:round;">
<path d="M11411 7105
L11411 7942
" />
<path d="M11411 8442
L10711 8442
" />
<path d="M11408 5616
L11408 6390
" />
<path d="M10961 8942
L11411 8942
" />
<path d="M10711 8692
L10961 8942
" />
<path d="M10711 6442
L10711 8442
" />
<path d="M10711 8442
L10711 8692
" />
<path d="M10761 6392
L10711 6442
" />
<path d="M11406 6392
L10761 6392
" />
</g>
<g style="fill:#000000; fill-opacity:0.0; 
stroke:#000000; stroke-width:98.4252; stroke-opacity:1; 
stroke-linecap:round; stroke-linejoin:round;">
<path d="M11408 6390
L11406 6392
" />
</g>
<g style="fill:#000000; fill-opacity:0.0; 
stroke:#000000; stroke-width:196.85; stroke-opacity:1; 
stroke-linecap:round; stroke-linejoin:round;">
<path d="M13611 8442
L13961 8442
" />
<path d="M16961 8442
L17961 9442
" />
<path d="M15311 8442
L16961 8442
" />
<path d="M15211 8542
L15311 8442
" />
<path d="M14061 8542
L15211 8542
" />
<path d="M13961 8442
L14061 8542
" />
<path d="M13611 8942
L13961 8942
" />
<path d="M15361 8842
L15961 9442
" />
<path d="M14061 8842
L15361 8842
" />
<path d="M13961 8942
L14061 8842
" />
</g>
<g style="fill:#000000; fill-opacity:0.0; 
stroke:#000000; stroke-width:98.4252; stroke-opacity:1; 
stroke-linecap:round; stroke-linejoin:round;">
<path d="M2011 7442
L2148 7442
" />
</g>
<g style="fill:#000000; fill-opacity:0.0; 
stroke:#000000; stroke-width:393.701; stroke-opacity:1; 
stroke-linecap:round; stroke-linejoin:round;">
<path d="M2148 7442
L4061 9355
" />
<path d="M6420 9642
L4348 9642
" />
</g>
<g style="fill:#000000; fill-opacity:0.0; 
stroke:#000000; stroke-width:98.4252; stroke-opacity:1; 
stroke-linecap:round; stroke-linejoin:round;">
<path d="M4348 9642
L4061 9355
" />
</g>
<g style="fill:#000000; fill-opacity:1.0; 
stroke:#000000; stroke-width:100; stroke-opacity:1; 
stroke-linecap:round; stroke-linejoin:round;">
<polyline style="fill-rule:evenodd;"
points="19731,3210
19723,3171
19627,3026
18877,2276
18823,2241
18732,2180
18561,2146
18258,2146
18258,1742
18223,1571
18127,1426
17677,976
17532,880
17361,846
9611,846
9440,880
9295,976
8745,1526
8648,1671
8614,1842
8614,1946
7011,1946
6840,1980
6771,2026
6695,2076
6307,2464
6286,2496
6053,2496
5955,2397
5718,2299
5462,2299
5226,2397
5044,2577
4946,2814
4946,3070
5044,3306
5093,3356
4742,3356
4650,3373
4564,3428
4507,3512
4487,3611
4487,4674
4505,4767
4559,4852
4643,4909
4742,4929
5684,4929
6064,5308
6209,5405
6380,5439
7726,5439
7745,5458
7890,5555
8061,5589
8171,5589
8171,5589
8349,5589
8514,5522
8639,5396
8708,5232
8708,5054
8640,4890
8514,4764
8350,4695
8246,4695
8227,4676
8178,4644
8082,4580
7911,4546
6572,4546
6572,3776
6685,3662
7017,3662
7110,3645
7195,3590
7252,3507
7272,3407
7272,2839
9341,2839
9341,3599
9358,3691
9413,3776
9497,3834
9596,3854
9641,3854
9664,3889
10122,4346
10122,4346
10191,4392
10235,4422
10342,4443
10288,4522
10268,4622
10268,4838
10277,4889
10268,4937
10268,5153
10285,5246
10340,5331
10423,5388
10522,5408
11045,5408
11045,5931
11060,6009
11060,6044
10761,6044
10761,6044
10627,6071
10514,6146
10514,6146
10464,6196
10389,6309
10389,6309
10362,6442
10362,6442
10362,8692
10362,8692
10375,8758
10389,8826
10444,8908
10464,8939
10714,9189
10714,9189
10783,9234
10827,9264
10903,9279
10888,9301
10860,9442
10888,9584
10968,9704
11088,9784
11090,9784
11075,9858
11075,10527
11092,10620
11147,10705
11230,10762
11330,10782
12117,10782
12210,10765
12295,10710
12352,10626
12372,10527
12372,9952
12387,9877
12387,6536
12411,6541
12411,6541
14761,6541
14894,6514
15007,6439
15083,6326
15109,6192
15109,5291
16411,5291
16411,5291
16522,5269
16544,5264
16657,5189
16686,5160
16799,5182
16822,5182
17048,5138
17239,5010
17367,4818
17412,4592
17367,4367
17239,4175
17115,4092
17239,4010
17311,3903
17382,4010
17573,4138
17799,4182
17822,4182
18048,4138
18239,4010
18367,3818
18412,3592
18367,3367
18239,3175
18115,3092
18195,3039
18376,3039
18864,3528
18864,8879
18851,8848
18556,8553
18170,8393
17753,8392
17505,8494
17207,8196
17196,8189
17094,8121
17072,8116
16961,8094
16961,8094
16794,8094
16850,8038
17010,7652
17011,7234
16851,6848
16556,6553
16170,6393
15753,6392
15367,6552
15071,6847
14968,7095
14862,7116
14840,7121
14771,7167
14757,7146
14757,7146
14542,6931
14523,6884
14419,6781
14284,6724
14138,6724
14002,6780
13899,6884
13843,7019
13842,7165
13898,7301
13969,7371
13941,7412
13921,7511
13921,8094
13900,8094
13791,8072
13430,8072
13288,8101
13168,8181
13088,8301
13060,8442
13088,8584
13161,8692
13088,8801
13060,8942
13088,9084
13161,9192
13088,9301
13060,9442
13088,9584
13101,9603
12904,9603
12812,9620
12727,9675
12670,9759
12649,9858
12649,10527
12667,10620
12722,10705
12805,10762
12904,10782
13268,10782
13545,11058
13690,11155
13728,11163
790,11163
790,5650
960,5650
1120,6036
1415,6332
1681,6442
1417,6552
1121,6847
961,7233
960,7650
1120,8036
1415,8332
1801,8492
2219,8493
2464,8391
3353,9279
3353,10044
3370,10137
3425,10222
3508,10279
3608,10299
4514,10299
4606,10282
4691,10227
4748,10144
4759,10089
6420,10089
6591,10055
6591,10055
6774,10055
6867,10037
6952,9983
7009,9899
7029,9800
7029,9549
7064,9604
7148,9661
7247,9681
7430,9681
7431,9681
7602,9715
7975,9715
7975,9777
7992,9870
8047,9955
8130,10012
8230,10032
9017,10032
9110,10015
9195,9960
9252,9876
9272,9777
9272,9624
10072,8824
10119,8805
10223,8701
10279,8566
10279,8420
10223,8284
10119,8181
9984,8124
9838,8124
9702,8180
9599,8284
9579,8331
9051,8860
9017,8853
8607,8853
8449,8822
7602,8822
7431,8856
7430,8856
7402,8856
7422,8757
7422,8127
7404,8035
7350,7950
7266,7893
7167,7873
6835,7873
6830,7867
6860,7861
6945,7807
7002,7723
7022,7624
7022,6739
7911,6739
8082,6705
8227,6608
8246,6589
8349,6589
8514,6522
8639,6396
8708,6232
8708,6054
8640,5890
8514,5764
8350,5695
8172,5695
8172,5696
8061,5696
7890,5730
7745,5826
7726,5846
6780,5846
6609,5880
6532,5931
6464,5976
6134,6306
5192,6306
5100,6323
5014,6378
4957,6462
4937,6561
4937,6930
4769,6930
4769,6540
4751,6448
4696,6363
4613,6306
4514,6286
3749,6286
3061,5597
3061,5234
2901,4848
2606,4553
2220,4393
1803,4392
1417,4552
1121,4847
961,5233
960,5650
790,5650
790,722
19731,722
19731,3210
" /> 
<polyline style="fill-rule:evenodd;"
points="13505,2839
13614,2839
13614,2948
13624,2999
13614,3047
13614,3263
13624,3314
13614,3362
13614,3578
13624,3629
13614,3677
13614,3893
13631,3986
13686,4071
13729,4100
13691,4124
13634,4207
13614,4307
13614,4523
13624,4574
13614,4622
13614,4838
13624,4889
13614,4937
13614,5046
13505,5046
13454,5055
13406,5046
13190,5046
13139,5055
13091,5046
12875,5046
12824,5055
12776,5046
12560,5046
12509,5055
12461,5046
12245,5046
12194,5055
12146,5046
11930,5046
11879,5055
11832,5046
11615,5046
11564,5055
11517,5046
11407,5046
11407,4937
11398,4885
11407,4838
11407,4622
11390,4529
11335,4444
11293,4415
11330,4391
11387,4307
11407,4208
11407,3992
11390,3899
11335,3814
11293,3785
11330,3761
11387,3677
11407,3578
11407,3362
11398,3311
11407,3263
11407,3047
11398,2996
11407,2948
11407,2839
11517,2839
11568,2829
11615,2839
11832,2839
11883,2829
11930,2839
12146,2839
12198,2829
12245,2839
12461,2839
12512,2829
12560,2839
12776,2839
12827,2829
12875,2839
13091,2839
13142,2829
13190,2839
13406,2839
13457,2829
13505,2839
" /> 
<polyline style="fill-rule:evenodd;"
points="14861,3512
14841,3611
14841,4399
14858,4491
14913,4576
14939,4594
14761,4594
14749,4596
14744,4571
14754,4523
14754,4307
14736,4214
14682,4129
14639,4100
14677,4076
14734,3992
14754,3893
14754,3677
14744,3626
14754,3578
14754,3454
14900,3454
14861,3512
" /> 
<polyline style="fill-rule:evenodd;"
points="16219,3644
16254,3818
16382,4010
16506,4092
16382,4175
16254,4367
16209,4592
16209,4594
15884,4594
15903,4581
15960,4498
15981,4399
15981,3611
15963,3519
15919,3450
15972,3397
16219,3644
" /> 
</g>
<g style="fill:#FFFFFF; fill-opacity:1.0; 
stroke:#FFFFFF; stroke-width:100; stroke-opacity:1; 
stroke-linecap:round; stroke-linejoin:round;">
</g>
<g style="fill:#FFFFFF; fill-opacity:1.0; 
stroke:#FFFFFF; stroke-width:0; stroke-opacity:1; 
stroke-linecap:round; stroke-linejoin:round;">
<circle cx="9911.15" cy="8492.91" r="78.7402" /> 
</g>
<g style="fill:#FFFFFF; fill-opacity:1.0; 
stroke:#FFFFFF; stroke-width:39.3701; stroke-opacity:1; 
stroke-linecap:round; stroke-linejoin:round;">
</g>
<g style="fill:#FFFFFF; fill-opacity:1.0; 
stroke:#FFFFFF; stroke-width:0; stroke-opacity:1; 
stroke-linecap:round; stroke-linejoin:round;">
<circle cx="9911.15" cy="1992.91" r="78.7402" /> 
</g>
<g style="fill:#FFFFFF; fill-opacity:1.0; 
stroke:#FFFFFF; stroke-width:39.3701; stroke-opacity:1; 
stroke-linecap:round; stroke-linejoin:round;">
</g>
<g style="fill:#FFFFFF; fill-opacity:1.0; 
stroke:#FFFFFF; stroke-width:0; stroke-opacity:1; 
stroke-linecap:round; stroke-linejoin:round;">
<circle cx="14211.2" cy="7092.91" r="78.7402" /> 
</g>
<g style="fill:#FFFFFF; fill-opacity:1.0; 
stroke:#FFFFFF; stroke-width:39.3701; stroke-opacity:1; 
stroke-linecap:round; stroke-linejoin:round;">
</g>
<g style="fill:#FFFFFF; fill-opacity:1.0; 
stroke:#FFFFFF; stroke-width:0; stroke-opacity:1; 
stroke-linecap:round; stroke-linejoin:round;">
<circle cx="14211.2" cy="5692.91" r="78.7402" /> 
</g>
<g style="fill:#FFFFFF; fill-opacity:1.0; 
stroke:#FFFFFF; stroke-width:39.3701; stroke-opacity:1; 
stroke-linecap:round; stroke-linejoin:round;">
</g>
<g style="fill:#FFFFFF; fill-opacity:1.0; 
stroke:#FFFFFF; stroke-width:0; stroke-opacity:1; 
stroke-linecap:round; stroke-linejoin:round;">
<circle cx="5590.15" cy="2942.91" r="197" /> 
</g>
<g style="fill:#FFFFFF; fill-opacity:1.0; 
stroke:#FFFFFF; stroke-width:39.3701; stroke-opacity:1; 
stroke-linecap:round; stroke-linejoin:round;">
</g>
<g style="fill:#FFFFFF; fill-opacity:1.0; 
stroke:#FFFFFF; stroke-width:0; stroke-opacity:1; 
stroke-linecap:round; stroke-linejoin:round;">
<circle cx="15433.2" cy="2942.91" r="236" /> 
</g>
<g style="fill:#FFFFFF; fill-opacity:1.0; 
stroke:#FFFFFF; stroke-width:39.3701; stroke-opacity:1; 
stroke-linecap:round; stroke-linejoin:round;">
</g>
<g style="fill:#FFFFFF; fill-opacity:1.0; 
stroke:#FFFFFF; stroke-width:0; stroke-opacity:1; 
stroke-linecap:round; stroke-linejoin:round;">
<circle cx="2011.15" cy="5442.91" r="196.85" /> 
</g>
<g style="fill:#FFFFFF; fill-opacity:1.0; 
stroke:#FFFFFF; stroke-width:39.3701; stroke-opacity:1; 
stroke-linecap:round; stroke-linejoin:round;">
</g>
<g style="fill:#FFFFFF; fill-opacity:1.0; 
stroke:#FFFFFF; stroke-width:0; stroke-opacity:1; 
stroke-linecap:round; stroke-linejoin:round;">
<circle cx="2011.15" cy="3442.91" r="196.85" /> 
</g>
<g style="fill:#FFFFFF; fill-opacity:1.0; 
stroke:#FFFFFF; stroke-width:39.3701; stroke-opacity:1; 
stroke-linecap:round; stroke-linejoin:round;">
</g>
<g style="fill:#FFFFFF; fill-opacity:1.0; 
stroke:#FFFFFF; stroke-width:0; stroke-opacity:1; 
stroke-linecap:round; stroke-linejoin:round;">
<circle cx="16811.2" cy="2592.91" r="200" /> 
</g>
<g style="fill:#FFFFFF; fill-opacity:1.0; 
stroke:#FFFFFF; stroke-width:39.3701; stroke-opacity:1; 
stroke-linecap:round; stroke-linejoin:round;">
</g>
<g style="fill:#FFFFFF; fill-opacity:1.0; 
stroke:#FFFFFF; stroke-width:0; stroke-opacity:1; 
stroke-linecap:round; stroke-linejoin:round;">
<circle cx="17811.2" cy="2592.91" r="200" /> 
</g>
<g style="fill:#FFFFFF; fill-opacity:1.0; 
stroke:#FFFFFF; stroke-width:39.3701; stroke-opacity:1; 
stroke-linecap:round; stroke-linejoin:round;">
</g>
<g style="fill:#FFFFFF; fill-opacity:1.0; 
stroke:#FFFFFF; stroke-width:0; stroke-opacity:1; 
stroke-linecap:round; stroke-linejoin:round;">
<circle cx="16811.2" cy="3592.91" r="200" /> 
</g>
<g style="fill:#FFFFFF; fill-opacity:1.0; 
stroke:#FFFFFF; stroke-width:39.3701; stroke-opacity:1; 
stroke-linecap:round; stroke-linejoin:round;">
</g>
<g style="fill:#FFFFFF; fill-opacity:1.0; 
stroke:#FFFFFF; stroke-width:0; stroke-opacity:1; 
stroke-linecap:round; stroke-linejoin:round;">
<circle cx="17811.2" cy="3592.91" r="200" /> 
</g>
<g style="fill:#FFFFFF; fill-opacity:1.0; 
stroke:#FFFFFF; stroke-width:39.3701; stroke-opacity:1; 
stroke-linecap:round; stroke-linejoin:round;">
</g>
<g style="fill:#FFFFFF; fill-opacity:1.0; 
stroke:#FFFFFF; stroke-width:0; stroke-opacity:1; 
stroke-linecap:round; stroke-linejoin:round;">
<circle cx="16811.2" cy="4592.91" r="200" /> 
</g>
<g style="fill:#FFFFFF; fill-opacity:1.0; 
stroke:#FFFFFF; stroke-width:39.3701; stroke-opacity:1; 
stroke-linecap:round; stroke-linejoin:round;">
</g>
<g style="fill:#FFFFFF; fill-opacity:1.0; 
stroke:#FFFFFF; stroke-width:0; stroke-opacity:1; 
stroke-linecap:round; stroke-linejoin:round;">
<circle cx="17811.2" cy="4592.91" r="200" /> 
</g>
<g style="fill:#FFFFFF; fill-opacity:1.0; 
stroke:#FFFFFF; stroke-width:39.3701; stroke-opacity:1; 
stroke-linecap:round; stroke-linejoin:round;">
</g>
<g style="fill:#FFFFFF; fill-opacity:1.0; 
stroke:#FFFFFF; stroke-width:0; stroke-opacity:1; 
stroke-linecap:round; stroke-linejoin:round;">
<circle cx="15961.2" cy="7442.91" r="196.85" /> 
</g>
<g style="fill:#FFFFFF; fill-opacity:1.0; 
stroke:#FFFFFF; stroke-width:39.3701; stroke-opacity:1; 
stroke-linecap:round; stroke-linejoin:round;">
</g>
<g style="fill:#FFFFFF; fill-opacity:1.0; 
stroke:#FFFFFF; stroke-width:0; stroke-opacity:1; 
stroke-linecap:round; stroke-linejoin:round;">
<circle cx="17961.2" cy="7442.91" r="196.85" /> 
</g>
<g style="fill:#FFFFFF; fill-opacity:1.0; 
stroke:#FFFFFF; stroke-width:39.3701; stroke-opacity:1; 
stroke-linecap:round; stroke-linejoin:round;">
</g>
<g style="fill:#FFFFFF; fill-opacity:1.0; 
stroke:#FFFFFF; stroke-width:0; stroke-opacity:1; 
stroke-linecap:round; stroke-linejoin:round;">
<circle cx="17961.2" cy="9442.91" r="196.85" /> 
</g>
<g style="fill:#FFFFFF; fill-opacity:1.0; 
stroke:#FFFFFF; stroke-width:39.3701; stroke-opacity:1; 
stroke-linecap:round; stroke-linejoin:round;">
</g>
<g style="fill:#FFFFFF; fill-opacity:1.0; 
stroke:#FFFFFF; stroke-width:0; stroke-opacity:1; 
stroke-linecap:round; stroke-linejoin:round;">
<circle cx="15961.2" cy="9442.91" r="196.85" /> 
</g>
<g style="fill:#FFFFFF; fill-opacity:1.0; 
stroke:#FFFFFF; stroke-width:39.3701; stroke-opacity:1; 
stroke-linecap:round; stroke-linejoin:round;">
</g>
<g style="fill:#FFFFFF; fill-opacity:1.0; 
stroke:#FFFFFF; stroke-width:0; stroke-opacity:1; 
stroke-linecap:round; stroke-linejoin:round;">
<circle cx="2011.15" cy="7442.91" r="196.85" /> 
</g>
<g style="fill:#FFFFFF; fill-opacity:1.0; 
stroke:#FFFFFF; stroke-width:39.3701; stroke-opacity:1; 
stroke-linecap:round; stroke-linejoin:round;">
</g>
<g style="fill:#FFFFFF; fill-opacity:1.0; 
stroke:#FFFFFF; stroke-width:0; stroke-opacity:1; 
stroke-linecap:round; stroke-linejoin:round;">
<circle cx="2011.15" cy="9442.91" r="196.85" /> 
</g>
<g style="fill:#FFFFFF; fill-opacity:1.0; 
stroke:#FFFFFF; stroke-width:39.3701; stroke-opacity:1; 
stroke-linecap:round; stroke-linejoin:round;">
</g>
<g style="fill:#FFFFFF; fill-opacity:1.0; 
stroke:#FFFFFF; stroke-width:0; stroke-opacity:1; 
stroke-linecap:round; stroke-linejoin:round;">
<circle cx="8761.15" cy="5642.91" r="118.11" /> 
</g>
<g style="fill:#FFFFFF; fill-opacity:1.0; 
stroke:#FFFFFF; stroke-width:39.3701; stroke-opacity:1; 
stroke-linecap:round; stroke-linejoin:round;">
</g>
<g style="fill:#FFFFFF; fill-opacity:1.0; 
stroke:#FFFFFF; stroke-width:0; stroke-opacity:1; 
stroke-linecap:round; stroke-linejoin:round;">
<circle cx="8261.15" cy="6142.91" r="118.11" /> 
</g>
<g style="fill:#FFFFFF; fill-opacity:1.0; 
stroke:#FFFFFF; stroke-width:39.3701; stroke-opacity:1; 
stroke-linecap:round; stroke-linejoin:round;">
</g>
<g style="fill:#FFFFFF; fill-opacity:1.0; 
stroke:#FFFFFF; stroke-width:0; stroke-opacity:1; 
stroke-linecap:round; stroke-linejoin:round;">
<circle cx="8261.15" cy="5142.91" r="118.11" /> 
</g>
<g style="fill:#FFFFFF; fill-opacity:1.0; 
stroke:#FFFFFF; stroke-width:39.3701; stroke-opacity:1; 
stroke-linecap:round; stroke-linejoin:round;">
</g>
<g style="fill:#000000; fill-opacity:1.0; 
stroke:#000000; stroke-width:39.3701; stroke-opacity:1; 
stroke-linecap:round; stroke-linejoin:round;">
</g> 
</svg>
