<?xml version="1.0" standalone="no"?>
 <!DOCTYPE svg PUBLIC "-//W3C//DTD SVG 1.1//EN" 
 "http://www.w3.org/Graphics/SVG/1.1/DTD/svg11.dtd"> 
<svg xmlns="http://www.w3.org/2000/svg" version="1.1" 
    width="2.65938cm" height="2.85242cm" viewBox="0 0 10470 11230 ">
<title>SVG Picture created as rpi-rs485-shield-brd.svg date 2016/05/02 19:17:56 </title>
  <desc>Picture generated by PCBNEW </desc>
<g style="fill:#000000; fill-opacity:1;stroke:#000000; stroke-opacity:1;
stroke-linecap:round; stroke-linejoin:round; "
 transform="translate(0 0) scale(1 1)">
</g>
<g style="fill:#000000; fill-opacity:0.0; 
stroke:#000000; stroke-width:-0.000393701; stroke-opacity:1; 
stroke-linecap:round; stroke-linejoin:round;">
</g>
<g style="fill:#000000; fill-opacity:0.0; 
stroke:#000000; stroke-width:0; stroke-opacity:1; 
stroke-linecap:round; stroke-linejoin:round;">
</g>
<g style="fill:#000000; fill-opacity:1.0; 
stroke:#000000; stroke-width:0; stroke-opacity:1; 
stroke-linecap:round; stroke-linejoin:round;">
<polyline style="fill-rule:evenodd;"
points="8192,5227
8192,5857
7404,5857
7404,5227
8192,5227
" /> 
<polyline style="fill-rule:evenodd;"
points="6617,5227
6617,5857
5830,5857
5830,5227
6617,5227
" /> 
<polyline style="fill-rule:evenodd;"
points="2411,8502
2411,9182
1611,9182
1611,8502
2411,8502
" /> 
</g>
<g style="fill:#000000; fill-opacity:1.0; 
stroke:#000000; stroke-width:680; stroke-opacity:1; 
stroke-linecap:round; stroke-linejoin:round;">
</g>
<g style="fill:#000000; fill-opacity:0.0; 
stroke:#000000; stroke-width:680; stroke-opacity:1; 
stroke-linecap:round; stroke-linejoin:round;">
<path d="M2071 7842
L1951 7842
" />
<path d="M2071 6842
L1951 6842
" />
<path d="M2071 5842
L1951 5842
" />
<path d="M2071 4842
L1951 4842
" />
<path d="M2071 3842
L1951 3842
" />
</g>
<g style="fill:#000000; fill-opacity:0.0; 
stroke:#000000; stroke-width:0; stroke-opacity:1; 
stroke-linecap:round; stroke-linejoin:round;">
</g>
<g style="fill:#000000; fill-opacity:1.0; 
stroke:#000000; stroke-width:0; stroke-opacity:1; 
stroke-linecap:round; stroke-linejoin:round;">
<polyline style="fill-rule:evenodd;"
points="5192,7208
5192,7877
4404,7877
4404,7208
5192,7208
" /> 
<polyline style="fill-rule:evenodd;"
points="3617,7208
3617,7877
2830,7877
2830,7208
3617,7208
" /> 
<polyline style="fill-rule:evenodd;"
points="3545,6924
2876,6924
2876,6136
3545,6136
3545,6924
" /> 
<polyline style="fill-rule:evenodd;"
points="3545,5349
2876,5349
2876,4561
3545,4561
3545,5349
" /> 
<polyline style="fill-rule:evenodd;"
points="4545,6924
3876,6924
3876,6136
4545,6136
4545,6924
" /> 
<polyline style="fill-rule:evenodd;"
points="4545,5349
3876,5349
3876,4561
4545,4561
4545,5349
" /> 
<polyline style="fill-rule:evenodd;"
points="8486,7892
8036,7892
8036,7692
8486,7692
8486,7892
" /> 
<polyline style="fill-rule:evenodd;"
points="8486,7392
8036,7392
8036,7192
8486,7192
8486,7392
" /> 
<polyline style="fill-rule:evenodd;"
points="8486,6892
8036,6892
8036,6692
8486,6692
8486,6892
" /> 
<polyline style="fill-rule:evenodd;"
points="8486,6392
8036,6392
8036,6192
8486,6192
8486,6392
" /> 
<polyline style="fill-rule:evenodd;"
points="5986,6392
5536,6392
5536,6192
5986,6192
5986,6392
" /> 
<polyline style="fill-rule:evenodd;"
points="5986,6892
5536,6892
5536,6692
5986,6692
5986,6892
" /> 
<polyline style="fill-rule:evenodd;"
points="5986,7392
5536,7392
5536,7192
5986,7192
5986,7392
" /> 
<polyline style="fill-rule:evenodd;"
points="5986,7892
5536,7892
5536,7692
5986,7692
5986,7892
" /> 
<circle cx="6411.15" cy="1942.91" r="492" /> 
</g>
<g style="fill:#000000; fill-opacity:1.0; 
stroke:#000000; stroke-width:39.3701; stroke-opacity:1; 
stroke-linecap:round; stroke-linejoin:round;">
</g>
<g style="fill:#000000; fill-opacity:1.0; 
stroke:#000000; stroke-width:0; stroke-opacity:1; 
stroke-linecap:round; stroke-linejoin:round;">
<circle cx="8411.15" cy="1942.91" r="492" /> 
</g>
<g style="fill:#000000; fill-opacity:1.0; 
stroke:#000000; stroke-width:39.3701; stroke-opacity:1; 
stroke-linecap:round; stroke-linejoin:round;">
</g>
<g style="fill:#000000; fill-opacity:1.0; 
stroke:#000000; stroke-width:196.85; stroke-opacity:1; 
stroke-linecap:round; stroke-linejoin:round;">
</g>
<g style="fill:#000000; fill-opacity:0.0; 
stroke:#000000; stroke-width:196.85; stroke-opacity:1; 
stroke-linecap:round; stroke-linejoin:round;">
<path d="M1411 4842
L1411 1046
" />
</g>
<g style="fill:#000000; fill-opacity:0.0; 
stroke:#000000; stroke-width:393.701; stroke-opacity:1; 
stroke-linecap:round; stroke-linejoin:round;">
<path d="M7411 5155
L7798 5542
" />
<path d="M7411 1342
L7411 5155
" />
<path d="M7011 942
L7411 1342
" />
<path d="M1511 946
L7011 942
" />
</g>
<g style="fill:#000000; fill-opacity:0.0; 
stroke:#000000; stroke-width:196.85; stroke-opacity:1; 
stroke-linecap:round; stroke-linejoin:round;">
<path d="M1411 1046
L1511 946
" />
<path d="M7798 5542
L7798 5830
" />
</g>
<g style="fill:#000000; fill-opacity:0.0; 
stroke:#000000; stroke-width:393.701; stroke-opacity:1; 
stroke-linecap:round; stroke-linejoin:round;">
<path d="M7798 5830
L8261 6292
" />
<path d="M2011 4842
L1411 4842
" />
</g>
<g style="fill:#000000; fill-opacity:0.0; 
stroke:#000000; stroke-width:196.85; stroke-opacity:1; 
stroke-linecap:round; stroke-linejoin:round;">
<path d="M1411 8842
L2011 8842
" />
<path d="M1411 4942
L1411 8842
" />
<path d="M1411 4842
L1411 4942
" />
</g>
<g style="fill:#000000; fill-opacity:0.0; 
stroke:#000000; stroke-width:393.701; stroke-opacity:1; 
stroke-linecap:round; stroke-linejoin:round;">
<path d="M2011 4842
L3098 4842
" />
</g>
<g style="fill:#000000; fill-opacity:0.0; 
stroke:#000000; stroke-width:196.85; stroke-opacity:1; 
stroke-linecap:round; stroke-linejoin:round;">
<path d="M3098 4842
L3211 4955
" />
</g>
<g style="fill:#000000; fill-opacity:0.0; 
stroke:#000000; stroke-width:393.701; stroke-opacity:1; 
stroke-linecap:round; stroke-linejoin:round;">
<path d="M3211 4955
L4211 4955
" />
</g>
<g style="fill:#000000; fill-opacity:0.0; 
stroke:#000000; stroke-width:196.85; stroke-opacity:1; 
stroke-linecap:round; stroke-linejoin:round;">
<path d="M4086 4955
L4323 5192
" />
<path d="M4311 4955
L4323 4942
" />
</g>
<g style="fill:#000000; fill-opacity:0.0; 
stroke:#000000; stroke-width:393.701; stroke-opacity:1; 
stroke-linecap:round; stroke-linejoin:round;">
<path d="M6223 5542
L6223 5555
" />
<path d="M6223 5555
L6511 5842
" />
<path d="M6511 5842
L6511 7742
" />
</g>
<g style="fill:#000000; fill-opacity:0.0; 
stroke:#000000; stroke-width:196.85; stroke-opacity:1; 
stroke-linecap:round; stroke-linejoin:round;">
<path d="M6511 7742
L6561 7792
" />
</g>
<g style="fill:#000000; fill-opacity:0.0; 
stroke:#000000; stroke-width:393.701; stroke-opacity:1; 
stroke-linecap:round; stroke-linejoin:round;">
<path d="M6561 7792
L8261 7792
" />
<path d="M2011 3842
L6211 3842
" />
<path d="M6223 3855
L6223 5542
" />
</g>
<g style="fill:#000000; fill-opacity:0.0; 
stroke:#000000; stroke-width:196.85; stroke-opacity:1; 
stroke-linecap:round; stroke-linejoin:round;">
<path d="M6211 3842
L6223 3855
" />
<path d="M2011 7842
L2311 8142
" />
<path d="M4011 7042
L4211 6842
" />
<path d="M4011 7342
L4011 7042
" />
<path d="M4011 8142
L4011 7342
" />
<path d="M2311 8142
L4011 8142
" />
<path d="M4211 6842
L4211 6530
" />
<path d="M4211 6742
L4211 6530
" />
<path d="M5761 6792
L5761 7292
" />
<path d="M5761 6792
L4473 6792
" />
<path d="M4473 6792
L4211 6530
" />
<path d="M2011 6842
L2898 6842
" />
<path d="M2898 6842
L3211 6530
" />
<path d="M3211 6530
L3211 7530
" />
<path d="M3211 7530
L3223 7542
" />
<path d="M3123 7442
L3223 7542
" />
<path d="M2011 5842
L5311 5842
" />
<path d="M5311 5842
L5761 6292
" />
<path d="M2011 5842
L2111 5842
" />
<path d="M5761 7792
L5048 7792
" />
<path d="M5048 7792
L4798 7542
" />
<path d="M4798 7542
L4798 7355
" />
<path d="M8261 7292
L8761 7292
" />
</g>
<g style="fill:#000000; fill-opacity:0.0; 
stroke:#000000; stroke-width:393.701; stroke-opacity:1; 
stroke-linecap:round; stroke-linejoin:round;">
<path d="M8811 2342
L8411 1942
" />
<path d="M8811 7242
L8811 2342
" />
</g>
<g style="fill:#000000; fill-opacity:0.0; 
stroke:#000000; stroke-width:196.85; stroke-opacity:1; 
stroke-linecap:round; stroke-linejoin:round;">
<path d="M8761 7292
L8811 7242
" />
<path d="M8261 6792
L7161 6792
" />
<path d="M7011 2542
L6411 1942
" />
<path d="M7011 6642
L7011 2542
" />
<path d="M7161 6792
L7011 6642
" />
</g>
<g style="fill:#000000; fill-opacity:1.0; 
stroke:#000000; stroke-width:100; stroke-opacity:1; 
stroke-linecap:round; stroke-linejoin:round;">
<polyline style="fill-rule:evenodd;"
points="10131,9363
2584,9363
2623,9324
2661,9232
2661,8955
2598,8892
2061,8892
2061,8900
1961,8900
1961,8892
1953,8892
1953,8792
1961,8792
1961,8785
2061,8785
2061,8792
2598,8792
2661,8730
2661,8491
4011,8491
4144,8464
4257,8389
4333,8276
4359,8142
4359,8123
4404,8132
5003,8132
5048,8141
5048,8141
5504,8141
5536,8147
5986,8147
6078,8130
6163,8075
6185,8044
6195,8058
6225,8078
6245,8108
6390,8205
6561,8239
8261,8239
8432,8205
8531,8139
8578,8130
8663,8075
8720,7992
8741,7892
8741,7692
8737,7675
8811,7689
8982,7655
9127,7558
9223,7413
9258,7242
9258,2342
9223,2171
9153,2065
9153,1795
9040,1523
8832,1314
8559,1201
8264,1200
7991,1313
7782,1522
7669,1794
7669,2089
7781,2362
7990,2571
8262,2684
8364,2684
8364,6438
8036,6438
8001,6444
7359,6444
7359,2542
7333,2409
7257,2296
7257,2296
7123,2162
7153,2091
7153,1795
7040,1523
6832,1314
6559,1201
6264,1200
5991,1313
5782,1522
5669,1794
5669,2089
5781,2362
5990,2571
6262,2684
6558,2685
6630,2655
6662,2687
6662,3815
6636,3684
6539,3539
6532,3534
6527,3526
6382,3430
6211,3396
2456,3396
2309,3297
2083,3252
1938,3252
1712,3297
1521,3425
1490,3471
1490,1942
1631,1942
1698,2279
1889,2564
2174,2755
2511,2822
2847,2755
3133,2564
3323,2279
3390,1942
3323,1606
3133,1320
2847,1130
2511,1063
2174,1130
1889,1320
1698,1606
1631,1942
1490,1942
1490,922
10131,922
10131,9363
" /> 
<polyline style="fill-rule:evenodd;"
points="5776,4983
5737,4990
5652,5045
5595,5128
5575,5227
5575,5614
5557,5596
5444,5521
5422,5516
5311,5494
5311,5494
2547,5494
2501,5425
2379,5344
2542,5198
2642,4990
2643,4984
2596,4892
2061,4892
2061,4900
1961,4900
1961,4892
1953,4892
1953,4792
1961,4792
1961,4785
2061,4785
2061,4792
2596,4792
2643,4701
2642,4695
2542,4487
2379,4341
2456,4289
5776,4289
5776,4983
" /> 
</g>
<g style="fill:#FFFFFF; fill-opacity:1.0; 
stroke:#FFFFFF; stroke-width:100; stroke-opacity:1; 
stroke-linecap:round; stroke-linejoin:round;">
</g>
<g style="fill:#FFFFFF; fill-opacity:1.0; 
stroke:#FFFFFF; stroke-width:0; stroke-opacity:1; 
stroke-linecap:round; stroke-linejoin:round;">
<circle cx="2011.15" cy="8842.91" r="200" /> 
</g>
<g style="fill:#FFFFFF; fill-opacity:1.0; 
stroke:#FFFFFF; stroke-width:39.3701; stroke-opacity:1; 
stroke-linecap:round; stroke-linejoin:round;">
</g>
<g style="fill:#FFFFFF; fill-opacity:1.0; 
stroke:#FFFFFF; stroke-width:0; stroke-opacity:1; 
stroke-linecap:round; stroke-linejoin:round;">
<circle cx="2011.15" cy="7842.91" r="200" /> 
</g>
<g style="fill:#FFFFFF; fill-opacity:1.0; 
stroke:#FFFFFF; stroke-width:39.3701; stroke-opacity:1; 
stroke-linecap:round; stroke-linejoin:round;">
</g>
<g style="fill:#FFFFFF; fill-opacity:1.0; 
stroke:#FFFFFF; stroke-width:0; stroke-opacity:1; 
stroke-linecap:round; stroke-linejoin:round;">
<circle cx="2011.15" cy="6842.91" r="200" /> 
</g>
<g style="fill:#FFFFFF; fill-opacity:1.0; 
stroke:#FFFFFF; stroke-width:39.3701; stroke-opacity:1; 
stroke-linecap:round; stroke-linejoin:round;">
</g>
<g style="fill:#FFFFFF; fill-opacity:1.0; 
stroke:#FFFFFF; stroke-width:0; stroke-opacity:1; 
stroke-linecap:round; stroke-linejoin:round;">
<circle cx="2011.15" cy="5842.91" r="200" /> 
</g>
<g style="fill:#FFFFFF; fill-opacity:1.0; 
stroke:#FFFFFF; stroke-width:39.3701; stroke-opacity:1; 
stroke-linecap:round; stroke-linejoin:round;">
</g>
<g style="fill:#FFFFFF; fill-opacity:1.0; 
stroke:#FFFFFF; stroke-width:0; stroke-opacity:1; 
stroke-linecap:round; stroke-linejoin:round;">
<circle cx="2011.15" cy="4842.91" r="200" /> 
</g>
<g style="fill:#FFFFFF; fill-opacity:1.0; 
stroke:#FFFFFF; stroke-width:39.3701; stroke-opacity:1; 
stroke-linecap:round; stroke-linejoin:round;">
</g>
<g style="fill:#FFFFFF; fill-opacity:1.0; 
stroke:#FFFFFF; stroke-width:0; stroke-opacity:1; 
stroke-linecap:round; stroke-linejoin:round;">
<circle cx="2011.15" cy="3842.91" r="200" /> 
</g>
<g style="fill:#FFFFFF; fill-opacity:1.0; 
stroke:#FFFFFF; stroke-width:39.3701; stroke-opacity:1; 
stroke-linecap:round; stroke-linejoin:round;">
</g>
<g style="fill:#FFFFFF; fill-opacity:1.0; 
stroke:#FFFFFF; stroke-width:0; stroke-opacity:1; 
stroke-linecap:round; stroke-linejoin:round;">
<circle cx="6411.15" cy="1942.91" r="197" /> 
</g>
<g style="fill:#FFFFFF; fill-opacity:1.0; 
stroke:#FFFFFF; stroke-width:39.3701; stroke-opacity:1; 
stroke-linecap:round; stroke-linejoin:round;">
</g>
<g style="fill:#FFFFFF; fill-opacity:1.0; 
stroke:#FFFFFF; stroke-width:0; stroke-opacity:1; 
stroke-linecap:round; stroke-linejoin:round;">
<circle cx="8411.15" cy="1942.91" r="197" /> 
</g>
<g style="fill:#FFFFFF; fill-opacity:1.0; 
stroke:#FFFFFF; stroke-width:39.3701; stroke-opacity:1; 
stroke-linecap:round; stroke-linejoin:round;">
</g>
<g style="fill:#000000; fill-opacity:1.0; 
stroke:#000000; stroke-width:39.3701; stroke-opacity:1; 
stroke-linecap:round; stroke-linejoin:round;">
</g>
<g style="fill:#000000; fill-opacity:1.0; 
stroke:#000000; stroke-width:59.0551; stroke-opacity:1; 
stroke-linecap:round; stroke-linejoin:round;">
</g>
<g style="fill:#000000; fill-opacity:0.0; 
stroke:#000000; stroke-width:59.0551; stroke-opacity:1; 
stroke-linecap:round; stroke-linejoin:round;">
<path d="M1211 9642
L1211 642
" />
<path d="M10411 9642
L1211 9642
" />
<path d="M10411 642
L10411 9642
" />
<path d="M1211 642
L10411 642
" />
<path d="M2511 1442
L2511 2442
" />
<path d="M2011 1942
L3011 1942
" />
<circle cx="2511.15" cy="1942.91" r="600" /> 
</g> 
</svg>
